<?xml version="1.0" encoding="UTF-8" standalone="no"?>
<!DOCTYPE svg PUBLIC "-//W3C//DTD SVG 1.1//EN" "http://www.w3.org/Graphics/SVG/1.1/DTD/svg11.dtd">
<svg width="32px" height="26px" xmlns="http://www.w3.org/2000/svg" version="1.1" viewBox="0.00 0.00 500.00 400.00">
<g stroke-width="2.00" fill="none" stroke-linecap="butt">
<path stroke="#c0daee" vector-effect="non-scaling-stroke" d="
  M 201.24 191.18
  Q 199.65 190.35 199.11 188.60
  Q 198.95 188.08 199.32 187.68
  L 204.11 182.64"
/>
<path stroke="#90badb" vector-effect="non-scaling-stroke" d="
  M 204.11 182.64
  Q 221.65 165.25 239.47 147.47
  C 246.81 140.14 257.55 131.08 265.82 129.48
  Q 277.44 127.23 278.28 138.51
  Q 279.22 151.16 278.59 187.22
  Q 278.58 187.75 279.00 188.08
  Q 279.77 188.70 280.71 188.01"
/>
<path stroke="#c0daee" vector-effect="non-scaling-stroke" d="
  M 280.71 188.01
  L 285.40 187.44"
/>
<path stroke="#90badb" vector-effect="non-scaling-stroke" d="
  M 285.40 187.44
  L 290.95 186.76"
/>
<path stroke="#c0daee" vector-effect="non-scaling-stroke" d="
  M 290.95 186.76
  L 295.38 186.34"
/>
<path stroke="#90badb" vector-effect="non-scaling-stroke" d="
  M 295.38 186.34
  L 300.53 186.02"
/>
<path stroke="#c0daee" vector-effect="non-scaling-stroke" d="
  M 300.53 186.02
  Q 301.56 186.41 303.00 185.73
  Q 303.51 185.49 303.38 184.95
  Q 303.12 183.90 303.65 183.55"
/>
<path stroke="#90badb" vector-effect="non-scaling-stroke" d="
  M 303.65 183.55
  Q 303.86 164.34 303.71 145.24
  C 303.65 138.40 303.82 129.37 312.94 128.69
  Q 317.11 128.38 321.38 128.00
  A 1.44 1.44 0.0 0 0 322.43 125.73
  Q 321.94 125.03 320.49 124.98
  Q 311.40 124.65 302.31 124.96
  C 287.83 125.45 273.81 124.53 259.50 124.96
  C 249.48 125.26 240.20 124.86 230.50 124.73
  Q 227.73 124.69 227.18 126.37
  A 0.84 0.84 0.0 0 0 227.61 127.39
  L 231.56 129.27
  A 1.02 0.98 89.4 0 1 232.01 129.73
  Q 233.66 133.39 230.80 137.09
  C 216.00 156.22 198.01 173.51 181.22 190.91
  A 0.45 0.45 0.0 0 1 180.45 190.60
  Q 180.08 167.75 180.44 144.75
  C 180.64 132.01 182.07 129.23 195.15 127.99
  A 1.45 1.45 0.0 0 0 195.73 125.29
  C 193.04 123.77 179.55 124.84 175.74 124.99
  C 163.82 125.46 151.93 124.76 139.97 124.74
  C 138.44 124.73 136.21 124.39 136.28 126.52
  A 1.68 1.68 0.0 0 0 137.94 128.14
  C 155.39 128.37 155.99 133.37 155.97 149.00
  Q 155.94 191.04 156.06 232.91
  A 0.22 0.22 0.0 0 0 156.39 233.10
  L 179.52 219.84
  A 1.41 1.39 -14.8 0 0 180.22 218.65
  L 180.44 199.47
  A 0.41 0.40 -64.0 0 1 181.16 199.22
  L 192.26 213.01
  Q 192.58 213.40 193.04 213.20
  L 212.75 204.91
  A 0.35 0.35 0.0 0 0 212.88 204.35
  L 201.24 191.18"
/>
<path stroke="#5195ca" vector-effect="non-scaling-stroke" d="
  M 303.65 183.55
  Q 302.95 183.21 302.51 182.65
  Q 302.21 182.26 301.73 182.14
  C 297.70 181.21 291.65 181.68 290.95 186.76"
/>
<path stroke="#5195ca" vector-effect="non-scaling-stroke" d="
  M 285.40 187.44
  L 285.27 182.82
  Q 285.25 182.25 284.68 182.25
  L 281.72 182.25
  Q 281.17 182.25 281.13 182.79
  L 280.71 188.01"
/>
<path stroke="#5195ca" vector-effect="non-scaling-stroke" d="
  M 204.11 182.64
  Q 200.54 182.29 200.95 179.99
  Q 202.14 173.45 208.18 175.76
  A 1.38 1.38 0.0 0 0 209.85 173.75
  C 208.66 171.77 207.30 171.91 204.96 171.99
  Q 196.27 172.31 196.98 181.40
  Q 197.02 181.87 196.56 181.92
  L 193.72 182.26
  Q 193.09 182.33 193.07 182.96
  L 193.00 184.75
  Q 192.98 185.40 193.63 185.36
  L 196.27 185.21
  A 0.62 0.62 0.0 0 1 196.93 185.83
  L 197.00 203.25
  Q 197.00 203.75 197.50 203.75
  L 200.43 203.75
  Q 201.03 203.75 201.04 203.15
  L 201.24 191.18"
/>
<path stroke="#5195ca" vector-effect="non-scaling-stroke" d="
  M 300.53 186.02
  Q 298.73 184.04 295.38 186.34"
/>
<path stroke="#c4c4d6" vector-effect="non-scaling-stroke" d="
  M 305.75 188.39
  L 301.78 188.74"
/>
<path stroke="#9393af" vector-effect="non-scaling-stroke" d="
  M 301.78 188.74
  L 285.22 191.03"
/>
<path stroke="#c4c4d6" vector-effect="non-scaling-stroke" d="
  M 285.22 191.03
  L 281.04 191.69"
/>
<path stroke="#9393af" vector-effect="non-scaling-stroke" d="
  M 281.04 191.69
  L 274.85 192.96"
/>
<path stroke="#c4c4d6" vector-effect="non-scaling-stroke" d="
  M 274.85 192.96
  L 270.28 193.81"
/>
<path stroke="#9393af" vector-effect="non-scaling-stroke" d="
  M 270.28 193.81
  L 265.96 194.84"
/>
<path stroke="#c4c4d6" vector-effect="non-scaling-stroke" d="
  M 265.96 194.84
  L 261.15 195.99"
/>
<path stroke="#9393af" vector-effect="non-scaling-stroke" d="
  M 261.15 195.99
  L 252.33 198.34"
/>
<path stroke="#c4c4d6" vector-effect="non-scaling-stroke" d="
  M 252.33 198.34
  Q 250.36 198.39 248.15 199.53"
/>
<path stroke="#9393af" vector-effect="non-scaling-stroke" d="
  M 248.15 199.53
  L 243.66 200.67"
/>
<path stroke="#c4c4d6" vector-effect="non-scaling-stroke" d="
  M 243.66 200.67
  L 236.21 203.15"
/>
<path stroke="#9393af" vector-effect="non-scaling-stroke" d="
  M 236.21 203.15
  Q 233.07 204.03 229.93 205.18
  C 182.34 222.63 140.00 249.26 101.70 282.25
  Q 101.25 282.63 101.73 282.99
  L 125.07 300.51
  Q 125.33 300.71 125.57 300.47
  L 151.71 274.80
  A 0.73 0.68 -67.2 0 1 152.18 274.59
  Q 172.27 273.90 192.34 274.79
  C 194.71 274.90 196.68 274.66 198.90 274.25
  Q 200.54 273.95 200.24 272.30
  A 1.10 1.10 0.0 0 0 199.21 271.40
  C 195.31 271.17 188.52 271.09 185.24 269.23
  C 180.39 266.48 180.43 255.94 180.65 251.23
  Q 180.68 250.52 181.27 250.13
  L 207.69 232.29
  A 0.98 0.98 0.0 0 1 208.98 232.46
  C 219.39 244.44 229.98 257.38 242.45 267.28
  C 250.42 273.61 259.52 274.90 269.25 274.81
  C 286.32 274.65 302.82 274.38 320.43 274.89
  Q 335.27 275.31 352.50 275.22
  C 356.89 275.20 359.96 274.53 361.00 269.75
  Q 363.62 257.62 363.83 245.22
  Q 363.83 244.77 363.55 244.42
  Q 362.70 243.40 361.49 243.97
  A 1.90 1.90 0.0 0 0 360.43 245.42
  C 359.44 252.57 355.50 261.55 347.51 263.03
  C 339.80 264.47 307.89 267.32 305.40 255.53
  Q 303.00 244.17 303.82 227.25
  Q 303.90 225.53 303.32 224.43"
/>
<path stroke="#c4c4d6" vector-effect="non-scaling-stroke" d="
  M 303.32 224.43
  Q 303.19 224.20 303.27 223.77"
/>
<path stroke="#9393af" vector-effect="non-scaling-stroke" d="
  M 303.27 223.77
  Q 303.88 223.22 303.79 222.50
  C 303.04 216.50 303.54 209.99 303.61 204.09"
/>
<path stroke="#c4c4d6" vector-effect="non-scaling-stroke" d="
  M 303.61 204.09
  C 303.57 201.48 302.13 195.61 305.99 195.61"
/>
<path stroke="#9393af" vector-effect="non-scaling-stroke" d="
  M 305.99 195.61
  Q 331.63 191.35 357.50 191.51
  C 369.60 191.58 384.22 193.66 397.62 194.38
  Q 397.75 194.38 397.84 194.30
  Q 397.89 194.25 397.92 194.21
  Q 398.07 194.01 397.78 193.95
  Q 352.19 184.34 305.75 188.39"
/>
<path stroke="#585886" vector-effect="non-scaling-stroke" d="
  M 305.99 195.61
  L 305.75 188.39"
/>
<path stroke="#585886" vector-effect="non-scaling-stroke" d="
  M 303.61 204.09
  Q 302.17 203.66 301.67 202.06
  Q 301.51 201.54 301.14 201.93
  C 298.66 204.55 292.11 205.48 290.53 201.18
  C 287.97 194.21 294.90 191.31 300.82 191.55
  Q 301.32 191.58 301.55 191.13
  Q 302.22 189.84 301.78 188.74"
/>
<path stroke="#585886" vector-effect="non-scaling-stroke" d="
  M 303.27 223.77
  Q 301.35 223.93 299.99 222.20
  A 1.14 1.14 0.0 0 1 300.82 220.35
  L 302.69 220.24
  A 0.51 0.50 -45.1 0 0 302.69 219.23
  L 300.39 219.11
  A 0.41 0.41 0.0 0 1 300.05 218.51
  Q 300.85 217.06 302.51 216.76
  A 0.50 0.50 0.0 0 0 302.53 215.78
  C 296.76 214.54 296.51 226.69 303.32 224.43"
/>
<path stroke="#585886" vector-effect="non-scaling-stroke" d="
  M 236.21 203.15
  Q 239.85 204.90 243.54 203.83
  Q 244.07 203.68 244.00 203.14
  L 243.66 200.67"
/>
<path stroke="#585886" vector-effect="non-scaling-stroke" d="
  M 248.15 199.53
  C 253.47 207.65 265.21 205.19 265.96 194.84"
/>
<path stroke="#585886" vector-effect="non-scaling-stroke" d="
  M 270.28 193.81
  L 270.57 204.12"
/>
<path stroke="#9393af" vector-effect="non-scaling-stroke" d="
  M 270.57 204.12
  Q 253.92 209.57 237.28 216.67"
/>
<path stroke="#585886" vector-effect="non-scaling-stroke" d="
  M 237.28 216.67
  Q 235.72 214.80 235.70 211.71
  A 0.50 0.50 0.0 0 0 234.71 211.59
  Q 234.06 214.38 234.76 217.89"
/>
<path stroke="#9393af" vector-effect="non-scaling-stroke" d="
  M 234.76 217.89
  L 228.84 220.85
  A 0.42 0.42 0.0 0 0 228.72 221.51
  Q 243.18 237.57 258.45 252.30
  Q 266.39 259.96 275.73 265.69
  A 0.67 0.66 -68.5 0 0 276.73 265.25
  C 279.35 251.76 278.68 236.94 278.79 223.13"
/>
<path stroke="#585886" vector-effect="non-scaling-stroke" d="
  M 278.79 223.13
  Q 284.93 227.44 286.40 220.72
  C 287.45 215.94 282.04 213.99 278.76 217.42"
/>
<path stroke="#9393af" vector-effect="non-scaling-stroke" d="
  M 278.76 217.42
  L 278.73 202.46
  Q 278.73 201.85 278.14 201.99
  L 275.17 202.74"
/>
<path stroke="#585886" vector-effect="non-scaling-stroke" d="
  M 275.17 202.74
  L 274.85 192.96"
/>
<path stroke="#585886" vector-effect="non-scaling-stroke" d="
  M 281.04 191.69
  L 280.92 202.59
  A 1.29 1.29 0.0 0 0 282.32 203.89
  L 284.80 203.69
  Q 285.23 203.66 285.23 203.22
  L 285.22 191.03"
/>
<path stroke="#c4c4d6" vector-effect="non-scaling-stroke" d="
  M 278.76 217.42
  L 279.35 219.26"
/>
<path stroke="#9393af" vector-effect="non-scaling-stroke" d="
  M 279.35 219.26
  L 279.18 220.46"
/>
<path stroke="#c4c4d6" vector-effect="non-scaling-stroke" d="
  M 279.18 220.46
  L 278.79 223.13"
/>
<path stroke="#c4c4d6" vector-effect="non-scaling-stroke" d="
  M 234.76 217.89
  Q 236.08 217.56 237.28 216.67"
/>
<path stroke="#c4c4d6" vector-effect="non-scaling-stroke" d="
  M 275.17 202.74
  L 270.57 204.12"
/>
<path stroke="#585886" vector-effect="non-scaling-stroke" d="
  M 252.33 198.34
  C 254.79 203.12 260.84 201.23 261.15 195.99"
/>
<path stroke="#585886" vector-effect="non-scaling-stroke" d="
  M 279.18 220.46
  C 279.62 222.50 281.52 224.64 283.73 223.27
  C 287.84 220.72 282.41 212.88 279.35 219.26"
/>
<path stroke="#808080" vector-effect="non-scaling-stroke" d="
  M 434.79 388.14
  Q 436.04 389.07 437.25 387.97
  Q 437.89 387.40 437.19 386.90
  Q 436.49 386.40 436.86 385.59
  Q 437.04 385.20 436.65 385.03
  Q 436.37 384.91 436.18 385.03
  Q 435.96 385.17 435.99 385.51
  Q 436.00 385.77 436.12 386.02
  Q 436.27 386.37 436.01 386.63
  Q 435.42 387.22 434.51 386.98
  Q 433.98 386.84 434.08 386.29
  L 434.28 385.28
  A 0.23 0.23 0.0 0 0 434.05 385.00
  Q 433.86 385.00 433.68 385.00
  A 0.38 0.38 0.0 0 0 433.29 385.38
  Q 433.31 386.64 432.23 387.27
  Q 431.69 387.59 432.21 387.94
  Q 433.19 388.60 432.65 389.66
  Q 432.51 389.95 432.17 390.11
  Q 431.88 390.25 431.56 390.31
  Q 431.02 390.43 431.51 390.67
  Q 433.21 391.50 432.16 393.21
  A 0.54 0.54 0.0 0 0 433.02 393.85
  Q 433.80 392.98 433.31 391.89
  Q 432.97 391.14 433.79 391.08
  L 434.81 391.00
  A 0.50 0.50 0.0 0 1 435.30 391.71
  Q 434.86 392.66 435.05 393.70
  A 0.56 0.43 -59.5 0 0 435.97 393.33
  Q 435.80 390.99 437.15 390.75
  Q 437.82 390.63 437.27 390.22
  L 436.70 389.79
  Q 436.35 389.53 435.94 389.63
  L 434.24 390.05
  Q 433.37 390.26 433.62 389.40
  L 433.88 388.46
  A 0.59 0.58 -64.1 0 1 434.79 388.14"
/>
<path stroke="#808080" vector-effect="non-scaling-stroke" d="
  M 443.34 389.04
  Q 444.62 387.88 443.88 386.34
  C 442.57 383.59 437.28 385.62 439.91 389.12
  A 0.52 0.51 54.2 0 1 439.80 389.85
  Q 438.62 390.67 438.75 392.13
  Q 438.81 392.75 439.33 393.11
  Q 441.61 394.71 443.90 393.08
  A 1.42 1.38 76.8 0 0 444.48 392.11
  Q 444.66 390.64 443.39 389.80
  Q 442.89 389.46 443.34 389.04"
/>
<path stroke="#808080" vector-effect="non-scaling-stroke" d="
  M 462.25 387.40
  L 462.24 392.11
  Q 462.24 392.55 461.81 392.63
  L 460.36 392.91
  A 0.55 0.55 0.0 0 0 460.47 394.00
  L 464.66 394.00
  Q 465.05 394.00 465.20 393.65
  Q 465.29 393.46 465.25 393.25
  Q 465.16 392.80 464.70 392.86
  Q 463.58 393.03 463.49 392.01
  Q 463.35 390.39 463.69 385.56
  A 0.61 0.60 -9.1 0 0 462.85 384.96
  L 460.24 386.02
  A 0.39 0.38 -57.5 0 0 460.40 386.76
  Q 461.12 386.71 461.82 386.86
  Q 462.26 386.95 462.25 387.40"
/>
<path stroke="#808080" vector-effect="non-scaling-stroke" d="
  M 469.08 387.24
  L 469.15 392.17
  A 0.57 0.57 0.0 0 1 468.58 392.75
  L 467.26 392.75
  Q 467.07 392.75 467.02 392.93
  Q 466.95 393.15 467.02 393.39
  Q 467.18 393.98 467.78 393.97
  L 472.19 393.88
  A 0.47 0.47 0.0 0 0 472.29 392.96
  L 471.02 392.66
  Q 470.46 392.52 470.47 391.95
  L 470.57 385.59
  Q 470.58 384.85 469.87 385.08
  L 467.45 385.85
  Q 466.34 386.20 467.47 386.48
  L 468.73 386.80
  Q 469.07 386.88 469.08 387.24"
/>
<path stroke="#808080" vector-effect="non-scaling-stroke" d="
  M 479.13 392.19
  L 479.45 391.95
  Q 479.93 391.60 479.46 391.22
  L 478.91 390.77
  Q 478.45 390.39 478.50 389.81
  L 478.82 386.08
  A 1.24 1.24 0.0 0 0 476.49 385.39
  L 473.43 391.06
  A 0.64 0.63 32.3 0 0 473.62 391.88
  Q 474.52 392.54 475.60 392.16
  Q 476.04 392.01 476.49 392.12
  Q 477.34 392.33 477.24 393.19
  A 0.71 0.70 -35.1 0 0 478.63 393.43
  L 478.80 392.69
  Q 478.87 392.38 479.13 392.19"
/>
<path stroke="#808080" vector-effect="non-scaling-stroke" d="
  M 485.19 389.97
  Q 484.97 391.75 483.48 392.54
  A 1.18 1.16 43.4 0 1 482.40 392.56
  L 481.80 392.27
  A 0.62 0.62 0.0 0 0 481.23 393.38
  C 486.98 396.54 488.43 385.12 483.38 385.04
  C 479.43 384.98 479.63 391.80 484.68 389.59
  Q 485.27 389.34 485.19 389.97"
/>
<path stroke="#808080" vector-effect="non-scaling-stroke" d="
  M 450.24 389.71
  Q 449.91 393.37 446.65 392.32
  Q 446.05 392.13 446.05 392.76
  Q 446.05 393.30 446.50 393.51
  C 452.40 396.24 453.68 383.40 447.00 385.43
  A 2.22 2.21 66.5 0 0 445.73 388.67
  Q 447.15 391.10 449.75 389.42
  A 0.32 0.32 0.0 0 1 450.24 389.71"
/>
<path stroke="#808080" vector-effect="non-scaling-stroke" d="
  M 455.32 392.20
  C 456.68 390.52 459.44 387.83 457.04 385.61
  A 1.33 1.32 66.7 0 0 456.17 385.26
  Q 454.37 385.20 453.84 385.33
  Q 452.71 385.59 452.76 386.58
  A 0.47 0.46 65.4 0 0 453.56 386.88
  Q 454.27 386.12 455.40 386.28
  A 1.64 1.64 0.0 0 1 456.39 389.01
  L 452.49 393.29
  A 0.47 0.47 0.0 0 0 452.86 394.08
  L 458.41 393.79
  A 0.48 0.48 0.0 0 0 458.58 392.87
  Q 457.26 392.27 455.76 392.82
  Q 454.42 393.31 455.32 392.20"
/>
<path stroke="#808080" vector-effect="non-scaling-stroke" d="
  M 492.05 389.25
  C 495.19 387.18 491.13 383.99 488.18 385.70
  Q 487.77 385.95 487.99 386.38
  Q 488.14 386.69 488.48 386.62
  L 490.46 386.23
  A 0.82 0.82 0.0 0 1 491.41 386.78
  Q 491.83 388.08 490.90 388.71
  Q 490.46 389.00 489.93 388.99
  Q 489.64 388.98 489.43 389.17
  A 0.41 0.41 0.0 0 0 489.52 389.83
  L 491.76 390.99
  A 0.66 0.65 -46.6 0 1 491.79 392.13
  Q 490.12 393.15 488.37 392.14
  Q 487.99 391.92 487.81 392.33
  Q 487.71 392.53 487.77 392.77
  Q 487.84 393.10 488.23 393.31
  C 489.94 394.25 493.63 393.96 493.26 391.14
  Q 493.20 390.65 492.78 390.41
  L 492.07 389.98
  Q 491.47 389.63 492.05 389.25"
/>
<path stroke="#5195ca" vector-effect="non-scaling-stroke" d="
  M 285.7671 173.1263
  A 0.60 0.60 0.0 0 0 285.1735 172.5200
  L 281.3737 172.4802
  A 0.60 0.60 0.0 0 0 280.7674 173.0739
  L 280.7329 176.3737
  A 0.60 0.60 0.0 0 0 281.3265 176.9800
  L 285.1263 177.0198
  A 0.60 0.60 0.0 0 0 285.7326 176.4261
  L 285.7671 173.1263"
/>
<path stroke="#585886" vector-effect="non-scaling-stroke" d="
  M 294.50 198.95
  L 296.42 201.05
  A 1.17 1.17 0.0 0 0 298.07 201.12
  L 299.22 200.06
  A 5.41 2.48 -42.5 0 0 301.54 194.58
  L 301.39 194.42
  A 5.41 2.48 -42.5 0 0 295.72 196.25
  L 294.57 197.30
  A 1.17 1.17 0.0 0 0 294.50 198.95"
/>
<path stroke="#585886" vector-effect="non-scaling-stroke" d="
  M 290.27 215.02
  Q 290.21 213.50 290.25 212.00
  Q 290.27 210.89 289.04 211.37
  Q 288.75 211.48 288.75 211.79
  L 288.75 223.24
  A 1.78 1.78 0.0 0 0 290.62 225.02
  C 298.53 224.61 298.70 214.82 290.82 215.51
  Q 290.29 215.56 290.27 215.02"
/>
<path stroke="#585886" vector-effect="non-scaling-stroke" d="
  M 290.26 217.75
  L 290.24 222.73
  A 0.85 0.85 0.0 0 0 291.08 223.58
  L 291.83 223.59
  A 3.16 3.06 0.3 0 0 295.01 220.54
  L 295.01 219.98
  A 3.16 3.06 0.3 0 0 291.87 216.91
  L 291.12 216.90
  A 0.85 0.85 0.0 0 0 290.26 217.75"
/>
<path stroke="#808080" vector-effect="non-scaling-stroke" d="
  M 442.92 387.47
  A 1.30 1.30 0.0 0 0 441.62 386.17
  A 1.30 1.30 0.0 0 0 440.32 387.47
  A 1.30 1.30 0.0 0 0 441.62 388.77
  A 1.30 1.30 0.0 0 0 442.92 387.47"
/>
<path stroke="#808080" vector-effect="non-scaling-stroke" d="
  M 442.95 391.47
  A 1.47 1.47 0.0 0 0 441.48 390.00
  A 1.47 1.47 0.0 0 0 440.01 391.47
  A 1.47 1.47 0.0 0 0 441.48 392.94
  A 1.47 1.47 0.0 0 0 442.95 391.47"
/>
<path stroke="#808080" vector-effect="non-scaling-stroke" d="
  M 477.03 386.75
  L 475.15 390.50
  A 0.35 0.35 0.0 0 0 475.46 391.00
  L 476.61 391.00
  Q 477.22 391.00 477.24 390.39
  L 477.36 386.83
  A 0.17 0.17 0.0 0 0 477.03 386.75"
/>
<path stroke="#808080" vector-effect="non-scaling-stroke" d="
  M 484.91 387.67
  A 1.46 1.46 0.0 0 0 483.45 386.21
  A 1.46 1.46 0.0 0 0 481.99 387.67
  A 1.46 1.46 0.0 0 0 483.45 389.13
  A 1.46 1.46 0.0 0 0 484.91 387.67"
/>
<path stroke="#808080" vector-effect="non-scaling-stroke" d="
  M 449.86 387.69
  A 1.44 1.44 0.0 0 0 448.42 386.25
  A 1.44 1.44 0.0 0 0 446.98 387.69
  A 1.44 1.44 0.0 0 0 448.42 389.13
  A 1.44 1.44 0.0 0 0 449.86 387.69"
/>
</g>
<path fill="#ffffff" d="
  M 0.00 0.00
  L 500.00 0.00
  L 500.00 400.00
  L 0.00 400.00
  L 0.00 0.00
  Z
  M 201.24 191.18
  Q 199.65 190.35 199.11 188.60
  Q 198.95 188.08 199.32 187.68
  L 204.11 182.64
  Q 221.65 165.25 239.47 147.47
  C 246.81 140.14 257.55 131.08 265.82 129.48
  Q 277.44 127.23 278.28 138.51
  Q 279.22 151.16 278.59 187.22
  Q 278.58 187.75 279.00 188.08
  Q 279.77 188.70 280.71 188.01
  L 285.40 187.44
  L 290.95 186.76
  L 295.38 186.34
  L 300.53 186.02
  Q 301.56 186.41 303.00 185.73
  Q 303.51 185.49 303.38 184.95
  Q 303.12 183.90 303.65 183.55
  Q 303.86 164.34 303.71 145.24
  C 303.65 138.40 303.82 129.37 312.94 128.69
  Q 317.11 128.38 321.38 128.00
  A 1.44 1.44 0.0 0 0 322.43 125.73
  Q 321.94 125.03 320.49 124.98
  Q 311.40 124.65 302.31 124.96
  C 287.83 125.45 273.81 124.53 259.50 124.96
  C 249.48 125.26 240.20 124.86 230.50 124.73
  Q 227.73 124.69 227.18 126.37
  A 0.84 0.84 0.0 0 0 227.61 127.39
  L 231.56 129.27
  A 1.02 0.98 89.4 0 1 232.01 129.73
  Q 233.66 133.39 230.80 137.09
  C 216.00 156.22 198.01 173.51 181.22 190.91
  A 0.45 0.45 0.0 0 1 180.45 190.60
  Q 180.08 167.75 180.44 144.75
  C 180.64 132.01 182.07 129.23 195.15 127.99
  A 1.45 1.45 0.0 0 0 195.73 125.29
  C 193.04 123.77 179.55 124.84 175.74 124.99
  C 163.82 125.46 151.93 124.76 139.97 124.74
  C 138.44 124.73 136.21 124.39 136.28 126.52
  A 1.68 1.68 0.0 0 0 137.94 128.14
  C 155.39 128.37 155.99 133.37 155.97 149.00
  Q 155.94 191.04 156.06 232.91
  A 0.22 0.22 0.0 0 0 156.39 233.10
  L 179.52 219.84
  A 1.41 1.39 -14.8 0 0 180.22 218.65
  L 180.44 199.47
  A 0.41 0.40 -64.0 0 1 181.16 199.22
  L 192.26 213.01
  Q 192.58 213.40 193.04 213.20
  L 212.75 204.91
  A 0.35 0.35 0.0 0 0 212.88 204.35
  L 201.24 191.18
  Z
  M 305.75 188.39
  L 301.78 188.74
  L 285.22 191.03
  L 281.04 191.69
  L 274.85 192.96
  L 270.28 193.81
  L 265.96 194.84
  L 261.15 195.99
  L 252.33 198.34
  Q 250.36 198.39 248.15 199.53
  L 243.66 200.67
  L 236.21 203.15
  Q 233.07 204.03 229.93 205.18
  C 182.34 222.63 140.00 249.26 101.70 282.25
  Q 101.25 282.63 101.73 282.99
  L 125.07 300.51
  Q 125.33 300.71 125.57 300.47
  L 151.71 274.80
  A 0.73 0.68 -67.2 0 1 152.18 274.59
  Q 172.27 273.90 192.34 274.79
  C 194.71 274.90 196.68 274.66 198.90 274.25
  Q 200.54 273.95 200.24 272.30
  A 1.10 1.10 0.0 0 0 199.21 271.40
  C 195.31 271.17 188.52 271.09 185.24 269.23
  C 180.39 266.48 180.43 255.94 180.65 251.23
  Q 180.68 250.52 181.27 250.13
  L 207.69 232.29
  A 0.98 0.98 0.0 0 1 208.98 232.46
  C 219.39 244.44 229.98 257.38 242.45 267.28
  C 250.42 273.61 259.52 274.90 269.25 274.81
  C 286.32 274.65 302.82 274.38 320.43 274.89
  Q 335.27 275.31 352.50 275.22
  C 356.89 275.20 359.96 274.53 361.00 269.75
  Q 363.62 257.62 363.83 245.22
  Q 363.83 244.77 363.55 244.42
  Q 362.70 243.40 361.49 243.97
  A 1.90 1.90 0.0 0 0 360.43 245.42
  C 359.44 252.57 355.50 261.55 347.51 263.03
  C 339.80 264.47 307.89 267.32 305.40 255.53
  Q 303.00 244.17 303.82 227.25
  Q 303.90 225.53 303.32 224.43
  Q 303.19 224.20 303.27 223.77
  Q 303.88 223.22 303.79 222.50
  C 303.04 216.50 303.54 209.99 303.61 204.09
  C 303.57 201.48 302.13 195.61 305.99 195.61
  Q 331.63 191.35 357.50 191.51
  C 369.60 191.58 384.22 193.66 397.62 194.38
  Q 397.75 194.38 397.84 194.30
  Q 397.89 194.25 397.92 194.21
  Q 398.07 194.01 397.78 193.95
  Q 352.19 184.34 305.75 188.39
  Z
  M 434.79 388.14
  Q 436.04 389.07 437.25 387.97
  Q 437.89 387.40 437.19 386.90
  Q 436.49 386.40 436.86 385.59
  Q 437.04 385.20 436.65 385.03
  Q 436.37 384.91 436.18 385.03
  Q 435.96 385.17 435.99 385.51
  Q 436.00 385.77 436.12 386.02
  Q 436.27 386.37 436.01 386.63
  Q 435.42 387.22 434.51 386.98
  Q 433.98 386.84 434.08 386.29
  L 434.28 385.28
  A 0.23 0.23 0.0 0 0 434.05 385.00
  Q 433.86 385.00 433.68 385.00
  A 0.38 0.38 0.0 0 0 433.29 385.38
  Q 433.31 386.64 432.23 387.27
  Q 431.69 387.59 432.21 387.94
  Q 433.19 388.60 432.65 389.66
  Q 432.51 389.95 432.17 390.11
  Q 431.88 390.25 431.56 390.31
  Q 431.02 390.43 431.51 390.67
  Q 433.21 391.50 432.16 393.21
  A 0.54 0.54 0.0 0 0 433.02 393.85
  Q 433.80 392.98 433.31 391.89
  Q 432.97 391.14 433.79 391.08
  L 434.81 391.00
  A 0.50 0.50 0.0 0 1 435.30 391.71
  Q 434.86 392.66 435.05 393.70
  A 0.56 0.43 -59.5 0 0 435.97 393.33
  Q 435.80 390.99 437.15 390.75
  Q 437.82 390.63 437.27 390.22
  L 436.70 389.79
  Q 436.35 389.53 435.94 389.63
  L 434.24 390.05
  Q 433.37 390.26 433.62 389.40
  L 433.88 388.46
  A 0.59 0.58 -64.1 0 1 434.79 388.14
  Z
  M 443.34 389.04
  Q 444.62 387.88 443.88 386.34
  C 442.57 383.59 437.28 385.62 439.91 389.12
  A 0.52 0.51 54.2 0 1 439.80 389.85
  Q 438.62 390.67 438.75 392.13
  Q 438.81 392.75 439.33 393.11
  Q 441.61 394.71 443.90 393.08
  A 1.42 1.38 76.8 0 0 444.48 392.11
  Q 444.66 390.64 443.39 389.80
  Q 442.89 389.46 443.34 389.04
  Z
  M 462.25 387.40
  L 462.24 392.11
  Q 462.24 392.55 461.81 392.63
  L 460.36 392.91
  A 0.55 0.55 0.0 0 0 460.47 394.00
  L 464.66 394.00
  Q 465.05 394.00 465.20 393.65
  Q 465.29 393.46 465.25 393.25
  Q 465.16 392.80 464.70 392.86
  Q 463.58 393.03 463.49 392.01
  Q 463.35 390.39 463.69 385.56
  A 0.61 0.60 -9.1 0 0 462.85 384.96
  L 460.24 386.02
  A 0.39 0.38 -57.5 0 0 460.40 386.76
  Q 461.12 386.71 461.82 386.86
  Q 462.26 386.95 462.25 387.40
  Z
  M 469.08 387.24
  L 469.15 392.17
  A 0.57 0.57 0.0 0 1 468.58 392.75
  L 467.26 392.75
  Q 467.07 392.75 467.02 392.93
  Q 466.95 393.15 467.02 393.39
  Q 467.18 393.98 467.78 393.97
  L 472.19 393.88
  A 0.47 0.47 0.0 0 0 472.29 392.96
  L 471.02 392.66
  Q 470.46 392.52 470.47 391.95
  L 470.57 385.59
  Q 470.58 384.85 469.87 385.08
  L 467.45 385.85
  Q 466.34 386.20 467.47 386.48
  L 468.73 386.80
  Q 469.07 386.88 469.08 387.24
  Z
  M 479.13 392.19
  L 479.45 391.95
  Q 479.93 391.60 479.46 391.22
  L 478.91 390.77
  Q 478.45 390.39 478.50 389.81
  L 478.82 386.08
  A 1.24 1.24 0.0 0 0 476.49 385.39
  L 473.43 391.06
  A 0.64 0.63 32.3 0 0 473.62 391.88
  Q 474.52 392.54 475.60 392.16
  Q 476.04 392.01 476.49 392.12
  Q 477.34 392.33 477.24 393.19
  A 0.71 0.70 -35.1 0 0 478.63 393.43
  L 478.80 392.69
  Q 478.87 392.38 479.13 392.19
  Z
  M 485.19 389.97
  Q 484.97 391.75 483.48 392.54
  A 1.18 1.16 43.4 0 1 482.40 392.56
  L 481.80 392.27
  A 0.62 0.62 0.0 0 0 481.23 393.38
  C 486.98 396.54 488.43 385.12 483.38 385.04
  C 479.43 384.98 479.63 391.80 484.68 389.59
  Q 485.27 389.34 485.19 389.97
  Z
  M 450.24 389.71
  Q 449.91 393.37 446.65 392.32
  Q 446.05 392.13 446.05 392.76
  Q 446.05 393.30 446.50 393.51
  C 452.40 396.24 453.68 383.40 447.00 385.43
  A 2.22 2.21 66.5 0 0 445.73 388.67
  Q 447.15 391.10 449.75 389.42
  A 0.32 0.32 0.0 0 1 450.24 389.71
  Z
  M 455.32 392.20
  C 456.68 390.52 459.44 387.83 457.04 385.61
  A 1.33 1.32 66.7 0 0 456.17 385.26
  Q 454.37 385.20 453.84 385.33
  Q 452.71 385.59 452.76 386.58
  A 0.47 0.46 65.4 0 0 453.56 386.88
  Q 454.27 386.12 455.40 386.28
  A 1.64 1.64 0.0 0 1 456.39 389.01
  L 452.49 393.29
  A 0.47 0.47 0.0 0 0 452.86 394.08
  L 458.41 393.79
  A 0.48 0.48 0.0 0 0 458.58 392.87
  Q 457.26 392.27 455.76 392.82
  Q 454.42 393.31 455.32 392.20
  Z
  M 492.05 389.25
  C 495.19 387.18 491.13 383.99 488.18 385.70
  Q 487.77 385.95 487.99 386.38
  Q 488.14 386.69 488.48 386.62
  L 490.46 386.23
  A 0.82 0.82 0.0 0 1 491.41 386.78
  Q 491.83 388.08 490.90 388.71
  Q 490.46 389.00 489.93 388.99
  Q 489.64 388.98 489.43 389.17
  A 0.41 0.41 0.0 0 0 489.52 389.83
  L 491.76 390.99
  A 0.66 0.65 -46.6 0 1 491.79 392.13
  Q 490.12 393.15 488.37 392.14
  Q 487.99 391.92 487.81 392.33
  Q 487.71 392.53 487.77 392.77
  Q 487.84 393.10 488.23 393.31
  C 489.94 394.25 493.63 393.96 493.26 391.14
  Q 493.20 390.65 492.78 390.41
  L 492.07 389.98
  Q 491.47 389.63 492.05 389.25
  Z"
/>
<path fill="#2175b6" d="
  M 303.65 183.55
  Q 302.95 183.21 302.51 182.65
  Q 302.21 182.26 301.73 182.14
  C 297.70 181.21 291.65 181.68 290.95 186.76
  L 285.40 187.44
  L 285.27 182.82
  Q 285.25 182.25 284.68 182.25
  L 281.72 182.25
  Q 281.17 182.25 281.13 182.79
  L 280.71 188.01
  Q 279.77 188.70 279.00 188.08
  Q 278.58 187.75 278.59 187.22
  Q 279.22 151.16 278.28 138.51
  Q 277.44 127.23 265.82 129.48
  C 257.55 131.08 246.81 140.14 239.47 147.47
  Q 221.65 165.25 204.11 182.64
  Q 200.54 182.29 200.95 179.99
  Q 202.14 173.45 208.18 175.76
  A 1.38 1.38 0.0 0 0 209.85 173.75
  C 208.66 171.77 207.30 171.91 204.96 171.99
  Q 196.27 172.31 196.98 181.40
  Q 197.02 181.87 196.56 181.92
  L 193.72 182.26
  Q 193.09 182.33 193.07 182.96
  L 193.00 184.75
  Q 192.98 185.40 193.63 185.36
  L 196.27 185.21
  A 0.62 0.62 0.0 0 1 196.93 185.83
  L 197.00 203.25
  Q 197.00 203.75 197.50 203.75
  L 200.43 203.75
  Q 201.03 203.75 201.04 203.15
  L 201.24 191.18
  L 212.88 204.35
  A 0.35 0.35 0.0 0 1 212.75 204.91
  L 193.04 213.20
  Q 192.58 213.40 192.26 213.01
  L 181.16 199.22
  A 0.41 0.40 -64.0 0 0 180.44 199.47
  L 180.22 218.65
  A 1.41 1.39 -14.8 0 1 179.52 219.84
  L 156.39 233.10
  A 0.22 0.22 0.0 0 1 156.06 232.91
  Q 155.94 191.04 155.97 149.00
  C 155.99 133.37 155.39 128.37 137.94 128.14
  A 1.68 1.68 0.0 0 1 136.28 126.52
  C 136.21 124.39 138.44 124.73 139.97 124.74
  C 151.93 124.76 163.82 125.46 175.74 124.99
  C 179.55 124.84 193.04 123.77 195.73 125.29
  A 1.45 1.45 0.0 0 1 195.15 127.99
  C 182.07 129.23 180.64 132.01 180.44 144.75
  Q 180.08 167.75 180.45 190.60
  A 0.45 0.45 0.0 0 0 181.22 190.91
  C 198.01 173.51 216.00 156.22 230.80 137.09
  Q 233.66 133.39 232.01 129.73
  A 1.02 0.98 89.4 0 0 231.56 129.27
  L 227.61 127.39
  A 0.84 0.84 0.0 0 1 227.18 126.37
  Q 227.73 124.69 230.50 124.73
  C 240.20 124.86 249.48 125.26 259.50 124.96
  C 273.81 124.53 287.83 125.45 302.31 124.96
  Q 311.40 124.65 320.49 124.98
  Q 321.94 125.03 322.43 125.73
  A 1.44 1.44 0.0 0 1 321.38 128.00
  Q 317.11 128.38 312.94 128.69
  C 303.82 129.37 303.65 138.40 303.71 145.24
  Q 303.86 164.34 303.65 183.55
  Z
  M 285.7671 173.1263
  A 0.60 0.60 0.0 0 0 285.1735 172.5200
  L 281.3737 172.4802
  A 0.60 0.60 0.0 0 0 280.7674 173.0739
  L 280.7329 176.3737
  A 0.60 0.60 0.0 0 0 281.3265 176.9800
  L 285.1263 177.0198
  A 0.60 0.60 0.0 0 0 285.7326 176.4261
  L 285.7671 173.1263
  Z"
/>
<path fill="#81b4dd" d="
  M 204.11 182.64
  L 199.32 187.68
  Q 198.95 188.08 199.11 188.60
  Q 199.65 190.35 201.24 191.18
  L 201.04 203.15
  Q 201.03 203.75 200.43 203.75
  L 197.50 203.75
  Q 197.00 203.75 197.00 203.25
  L 196.93 185.83
  A 0.62 0.62 0.0 0 0 196.27 185.21
  L 193.63 185.36
  Q 192.98 185.40 193.00 184.75
  L 193.07 182.96
  Q 193.09 182.33 193.72 182.26
  L 196.56 181.92
  Q 197.02 181.87 196.98 181.40
  Q 196.27 172.31 204.96 171.99
  C 207.30 171.91 208.66 171.77 209.85 173.75
  A 1.38 1.38 0.0 0 1 208.18 175.76
  Q 202.14 173.45 200.95 179.99
  Q 200.54 182.29 204.11 182.64
  Z"
/>
<rect fill="#81b4dd" x="-2.50" y="-2.25" transform="translate(283.25,174.75) rotate(0.6)" width="5.00" height="4.50" rx="0.60"/>
<path fill="#81b4dd" d="
  M 303.65 183.55
  Q 303.12 183.90 303.38 184.95
  Q 303.51 185.49 303.00 185.73
  Q 301.56 186.41 300.53 186.02
  Q 298.73 184.04 295.38 186.34
  L 290.95 186.76
  C 291.65 181.68 297.70 181.21 301.73 182.14
  Q 302.21 182.26 302.51 182.65
  Q 302.95 183.21 303.65 183.55
  Z"
/>
<path fill="#81b4dd" d="
  M 285.40 187.44
  L 280.71 188.01
  L 281.13 182.79
  Q 281.17 182.25 281.72 182.25
  L 284.68 182.25
  Q 285.25 182.25 285.27 182.82
  L 285.40 187.44
  Z"
/>
<path fill="#2175b6" d="
  M 300.53 186.02
  L 295.38 186.34
  Q 298.73 184.04 300.53 186.02
  Z"
/>
<path fill="#27265f" d="
  M 305.99 195.61
  L 305.75 188.39
  Q 352.19 184.34 397.78 193.95
  Q 398.07 194.01 397.92 194.21
  Q 397.89 194.25 397.84 194.30
  Q 397.75 194.38 397.62 194.38
  C 384.22 193.66 369.60 191.58 357.50 191.51
  Q 331.63 191.35 305.99 195.61
  Z"
/>
<path fill="#8889ac" d="
  M 305.75 188.39
  L 305.99 195.61
  C 302.13 195.61 303.57 201.48 303.61 204.09
  Q 302.17 203.66 301.67 202.06
  Q 301.51 201.54 301.14 201.93
  C 298.66 204.55 292.11 205.48 290.53 201.18
  C 287.97 194.21 294.90 191.31 300.82 191.55
  Q 301.32 191.58 301.55 191.13
  Q 302.22 189.84 301.78 188.74
  L 305.75 188.39
  Z
  M 294.50 198.95
  L 296.42 201.05
  A 1.17 1.17 0.0 0 0 298.07 201.12
  L 299.22 200.06
  A 5.41 2.48 -42.5 0 0 301.54 194.58
  L 301.39 194.42
  A 5.41 2.48 -42.5 0 0 295.72 196.25
  L 294.57 197.30
  A 1.17 1.17 0.0 0 0 294.50 198.95
  Z"
/>
<path fill="#27265f" d="
  M 301.78 188.74
  Q 302.22 189.84 301.55 191.13
  Q 301.32 191.58 300.82 191.55
  C 294.90 191.31 287.97 194.21 290.53 201.18
  C 292.11 205.48 298.66 204.55 301.14 201.93
  Q 301.51 201.54 301.67 202.06
  Q 302.17 203.66 303.61 204.09
  C 303.54 209.99 303.04 216.50 303.79 222.50
  Q 303.88 223.22 303.27 223.77
  Q 301.35 223.93 299.99 222.20
  A 1.14 1.14 0.0 0 1 300.82 220.35
  L 302.69 220.24
  A 0.51 0.50 -45.1 0 0 302.69 219.23
  L 300.39 219.11
  A 0.41 0.41 0.0 0 1 300.05 218.51
  Q 300.85 217.06 302.51 216.76
  A 0.50 0.50 0.0 0 0 302.53 215.78
  C 296.76 214.54 296.51 226.69 303.32 224.43
  Q 303.90 225.53 303.82 227.25
  Q 303.00 244.17 305.40 255.53
  C 307.89 267.32 339.80 264.47 347.51 263.03
  C 355.50 261.55 359.44 252.57 360.43 245.42
  A 1.90 1.90 0.0 0 1 361.49 243.97
  Q 362.70 243.40 363.55 244.42
  Q 363.83 244.77 363.83 245.22
  Q 363.62 257.62 361.00 269.75
  C 359.96 274.53 356.89 275.20 352.50 275.22
  Q 335.27 275.31 320.43 274.89
  C 302.82 274.38 286.32 274.65 269.25 274.81
  C 259.52 274.90 250.42 273.61 242.45 267.28
  C 229.98 257.38 219.39 244.44 208.98 232.46
  A 0.98 0.98 0.0 0 0 207.69 232.29
  L 181.27 250.13
  Q 180.68 250.52 180.65 251.23
  C 180.43 255.94 180.39 266.48 185.24 269.23
  C 188.52 271.09 195.31 271.17 199.21 271.40
  A 1.10 1.10 0.0 0 1 200.24 272.30
  Q 200.54 273.95 198.90 274.25
  C 196.68 274.66 194.71 274.90 192.34 274.79
  Q 172.27 273.90 152.18 274.59
  A 0.73 0.68 -67.2 0 0 151.71 274.80
  L 125.57 300.47
  Q 125.33 300.71 125.07 300.51
  L 101.73 282.99
  Q 101.25 282.63 101.70 282.25
  C 140.00 249.26 182.34 222.63 229.93 205.18
  Q 233.07 204.03 236.21 203.15
  Q 239.85 204.90 243.54 203.83
  Q 244.07 203.68 244.00 203.14
  L 243.66 200.67
  L 248.15 199.53
  C 253.47 207.65 265.21 205.19 265.96 194.84
  L 270.28 193.81
  L 270.57 204.12
  Q 253.92 209.57 237.28 216.67
  Q 235.72 214.80 235.70 211.71
  A 0.50 0.50 0.0 0 0 234.71 211.59
  Q 234.06 214.38 234.76 217.89
  L 228.84 220.85
  A 0.42 0.42 0.0 0 0 228.72 221.51
  Q 243.18 237.57 258.45 252.30
  Q 266.39 259.96 275.73 265.69
  A 0.67 0.66 -68.5 0 0 276.73 265.25
  C 279.35 251.76 278.68 236.94 278.79 223.13
  Q 284.93 227.44 286.40 220.72
  C 287.45 215.94 282.04 213.99 278.76 217.42
  L 278.73 202.46
  Q 278.73 201.85 278.14 201.99
  L 275.17 202.74
  L 274.85 192.96
  L 281.04 191.69
  L 280.92 202.59
  A 1.29 1.29 0.0 0 0 282.32 203.89
  L 284.80 203.69
  Q 285.23 203.66 285.23 203.22
  L 285.22 191.03
  L 301.78 188.74
  Z
  M 290.27 215.02
  Q 290.21 213.50 290.25 212.00
  Q 290.27 210.89 289.04 211.37
  Q 288.75 211.48 288.75 211.79
  L 288.75 223.24
  A 1.78 1.78 0.0 0 0 290.62 225.02
  C 298.53 224.61 298.70 214.82 290.82 215.51
  Q 290.29 215.56 290.27 215.02
  Z"
/>
<path fill="#8889ac" d="
  M 285.22 191.03
  L 285.23 203.22
  Q 285.23 203.66 284.80 203.69
  L 282.32 203.89
  A 1.29 1.29 0.0 0 1 280.92 202.59
  L 281.04 191.69
  L 285.22 191.03
  Z"
/>
<path fill="#8889ac" d="
  M 274.85 192.96
  L 275.17 202.74
  L 270.57 204.12
  L 270.28 193.81
  L 274.85 192.96
  Z"
/>
<path fill="#27265f" d="
  M 294.50 198.95
  A 1.17 1.17 0.0 0 1 294.57 197.30
  L 295.72 196.25
  A 5.41 2.48 -42.5 0 1 301.39 194.42
  L 301.54 194.58
  A 5.41 2.48 -42.5 0 1 299.22 200.06
  L 298.07 201.12
  A 1.17 1.17 0.0 0 1 296.42 201.05
  L 294.50 198.95
  Z"
/>
<path fill="#8889ac" d="
  M 265.96 194.84
  C 265.21 205.19 253.47 207.65 248.15 199.53
  Q 250.36 198.39 252.33 198.34
  C 254.79 203.12 260.84 201.23 261.15 195.99
  L 265.96 194.84
  Z"
/>
<path fill="#27265f" d="
  M 261.15 195.99
  C 260.84 201.23 254.79 203.12 252.33 198.34
  L 261.15 195.99
  Z"
/>
<path fill="#8889ac" d="
  M 243.66 200.67
  L 244.00 203.14
  Q 244.07 203.68 243.54 203.83
  Q 239.85 204.90 236.21 203.15
  L 243.66 200.67
  Z"
/>
<path fill="#ffffff" d="
  M 278.76 217.42
  L 279.35 219.26
  L 279.18 220.46
  L 278.79 223.13
  C 278.68 236.94 279.35 251.76 276.73 265.25
  A 0.67 0.66 -68.5 0 1 275.73 265.69
  Q 266.39 259.96 258.45 252.30
  Q 243.18 237.57 228.72 221.51
  A 0.42 0.42 0.0 0 1 228.84 220.85
  L 234.76 217.89
  Q 236.08 217.56 237.28 216.67
  Q 253.92 209.57 270.57 204.12
  L 275.17 202.74
  L 278.14 201.99
  Q 278.73 201.85 278.73 202.46
  L 278.76 217.42
  Z"
/>
<path fill="#8889ac" d="
  M 237.28 216.67
  Q 236.08 217.56 234.76 217.89
  Q 234.06 214.38 234.71 211.59
  A 0.50 0.50 0.0 0 1 235.70 211.71
  Q 235.72 214.80 237.28 216.67
  Z"
/>
<path fill="#8889ac" d="
  M 290.82 215.51
  C 298.70 214.82 298.53 224.61 290.62 225.02
  A 1.78 1.78 0.0 0 1 288.75 223.24
  L 288.75 211.79
  Q 288.75 211.48 289.04 211.37
  Q 290.27 210.89 290.25 212.00
  Q 290.21 213.50 290.27 215.02
  Q 290.29 215.56 290.82 215.51
  Z
  M 290.26 217.75
  L 290.24 222.73
  A 0.85 0.85 0.0 0 0 291.08 223.58
  L 291.83 223.59
  A 3.16 3.06 0.3 0 0 295.01 220.54
  L 295.01 219.98
  A 3.16 3.06 0.3 0 0 291.87 216.91
  L 291.12 216.90
  A 0.85 0.85 0.0 0 0 290.26 217.75
  Z"
/>
<path fill="#8889ac" d="
  M 278.79 223.13
  L 279.18 220.46
  C 279.62 222.50 281.52 224.64 283.73 223.27
  C 287.84 220.72 282.41 212.88 279.35 219.26
  L 278.76 217.42
  C 282.04 213.99 287.45 215.94 286.40 220.72
  Q 284.93 227.44 278.79 223.13
  Z"
/>
<path fill="#8889ac" d="
  M 303.27 223.77
  Q 303.19 224.20 303.32 224.43
  C 296.51 226.69 296.76 214.54 302.53 215.78
  A 0.50 0.50 0.0 0 1 302.51 216.76
  Q 300.85 217.06 300.05 218.51
  A 0.41 0.41 0.0 0 0 300.39 219.11
  L 302.69 219.23
  A 0.51 0.50 -45.1 0 1 302.69 220.24
  L 300.82 220.35
  A 1.14 1.14 0.0 0 0 299.99 222.20
  Q 301.35 223.93 303.27 223.77
  Z"
/>
<path fill="#27265f" d="
  M 279.18 220.46
  L 279.35 219.26
  C 282.41 212.88 287.84 220.72 283.73 223.27
  C 281.52 224.64 279.62 222.50 279.18 220.46
  Z"
/>
<path fill="#27265f" d="
  M 290.26 217.75
  A 0.85 0.85 0.0 0 1 291.12 216.90
  L 291.87 216.91
  A 3.16 3.06 0.3 0 1 295.01 219.98
  L 295.01 220.54
  A 3.16 3.06 0.3 0 1 291.83 223.59
  L 291.08 223.58
  A 0.85 0.85 0.0 0 1 290.24 222.73
  L 290.26 217.75
  Z"
/>
<path fill="#010101" d="
  M 433.88 388.46
  L 433.62 389.40
  Q 433.37 390.26 434.24 390.05
  L 435.94 389.63
  Q 436.35 389.53 436.70 389.79
  L 437.27 390.22
  Q 437.82 390.63 437.15 390.75
  Q 435.80 390.99 435.97 393.33
  A 0.56 0.43 -59.5 0 1 435.05 393.70
  Q 434.86 392.66 435.30 391.71
  A 0.50 0.50 0.0 0 0 434.81 391.00
  L 433.79 391.08
  Q 432.97 391.14 433.31 391.89
  Q 433.80 392.98 433.02 393.85
  A 0.54 0.54 0.0 0 1 432.16 393.21
  Q 433.21 391.50 431.51 390.67
  Q 431.02 390.43 431.56 390.31
  Q 431.88 390.25 432.17 390.11
  Q 432.51 389.95 432.65 389.66
  Q 433.19 388.60 432.21 387.94
  Q 431.69 387.59 432.23 387.27
  Q 433.31 386.64 433.29 385.38
  A 0.38 0.38 0.0 0 1 433.68 385.00
  Q 433.86 385.00 434.05 385.00
  A 0.23 0.23 0.0 0 1 434.28 385.28
  L 434.08 386.29
  Q 433.98 386.84 434.51 386.98
  Q 435.42 387.22 436.01 386.63
  Q 436.27 386.37 436.12 386.02
  Q 436.00 385.77 435.99 385.51
  Q 435.96 385.17 436.18 385.03
  Q 436.37 384.91 436.65 385.03
  Q 437.04 385.20 436.86 385.59
  Q 436.49 386.40 437.19 386.90
  Q 437.89 387.40 437.25 387.97
  Q 436.04 389.07 434.79 388.14
  A 0.59 0.58 -64.1 0 0 433.88 388.46
  Z"
/>
<path fill="#010101" d="
  M 443.39 389.80
  Q 444.66 390.64 444.48 392.11
  A 1.42 1.38 76.8 0 1 443.90 393.08
  Q 441.61 394.71 439.33 393.11
  Q 438.81 392.75 438.75 392.13
  Q 438.62 390.67 439.80 389.85
  A 0.52 0.51 54.2 0 0 439.91 389.12
  C 437.28 385.62 442.57 383.59 443.88 386.34
  Q 444.62 387.88 443.34 389.04
  Q 442.89 389.46 443.39 389.80
  Z
  M 442.92 387.47
  A 1.30 1.30 0.0 0 0 441.62 386.17
  A 1.30 1.30 0.0 0 0 440.32 387.47
  A 1.30 1.30 0.0 0 0 441.62 388.77
  A 1.30 1.30 0.0 0 0 442.92 387.47
  Z
  M 442.95 391.47
  A 1.47 1.47 0.0 0 0 441.48 390.00
  A 1.47 1.47 0.0 0 0 440.01 391.47
  A 1.47 1.47 0.0 0 0 441.48 392.94
  A 1.47 1.47 0.0 0 0 442.95 391.47
  Z"
/>
<path fill="#010101" d="
  M 461.82 386.86
  Q 461.12 386.71 460.40 386.76
  A 0.39 0.38 -57.5 0 1 460.24 386.02
  L 462.85 384.96
  A 0.61 0.60 -9.1 0 1 463.69 385.56
  Q 463.35 390.39 463.49 392.01
  Q 463.58 393.03 464.70 392.86
  Q 465.16 392.80 465.25 393.25
  Q 465.29 393.46 465.20 393.65
  Q 465.05 394.00 464.66 394.00
  L 460.47 394.00
  A 0.55 0.55 0.0 0 1 460.36 392.91
  L 461.81 392.63
  Q 462.24 392.55 462.24 392.11
  L 462.25 387.40
  Q 462.26 386.95 461.82 386.86
  Z"
/>
<path fill="#010101" d="
  M 468.73 386.80
  L 467.47 386.48
  Q 466.34 386.20 467.45 385.85
  L 469.87 385.08
  Q 470.58 384.85 470.57 385.59
  L 470.47 391.95
  Q 470.46 392.52 471.02 392.66
  L 472.29 392.96
  A 0.47 0.47 0.0 0 1 472.19 393.88
  L 467.78 393.97
  Q 467.18 393.98 467.02 393.39
  Q 466.95 393.15 467.02 392.93
  Q 467.07 392.75 467.26 392.75
  L 468.58 392.75
  A 0.57 0.57 0.0 0 0 469.15 392.17
  L 469.08 387.24
  Q 469.07 386.88 468.73 386.80
  Z"
/>
<path fill="#010101" d="
  M 478.80 392.69
  L 478.63 393.43
  A 0.71 0.70 -35.1 0 1 477.24 393.19
  Q 477.34 392.33 476.49 392.12
  Q 476.04 392.01 475.60 392.16
  Q 474.52 392.54 473.62 391.88
  A 0.64 0.63 32.3 0 1 473.43 391.06
  L 476.49 385.39
  A 1.24 1.24 0.0 0 1 478.82 386.08
  L 478.50 389.81
  Q 478.45 390.39 478.91 390.77
  L 479.46 391.22
  Q 479.93 391.60 479.45 391.95
  L 479.13 392.19
  Q 478.87 392.38 478.80 392.69
  Z
  M 477.03 386.75
  L 475.15 390.50
  A 0.35 0.35 0.0 0 0 475.46 391.00
  L 476.61 391.00
  Q 477.22 391.00 477.24 390.39
  L 477.36 386.83
  A 0.17 0.17 0.0 0 0 477.03 386.75
  Z"
/>
<path fill="#010101" d="
  M 484.68 389.59
  C 479.63 391.80 479.43 384.98 483.38 385.04
  C 488.43 385.12 486.98 396.54 481.23 393.38
  A 0.62 0.62 0.0 0 1 481.80 392.27
  L 482.40 392.56
  A 1.18 1.16 43.4 0 0 483.48 392.54
  Q 484.97 391.75 485.19 389.97
  Q 485.27 389.34 484.68 389.59
  Z
  M 484.91 387.67
  A 1.46 1.46 0.0 0 0 483.45 386.21
  A 1.46 1.46 0.0 0 0 481.99 387.67
  A 1.46 1.46 0.0 0 0 483.45 389.13
  A 1.46 1.46 0.0 0 0 484.91 387.67
  Z"
/>
<path fill="#010101" d="
  M 449.75 389.42
  Q 447.15 391.10 445.73 388.67
  A 2.22 2.21 66.5 0 1 447.00 385.43
  C 453.68 383.40 452.40 396.24 446.50 393.51
  Q 446.05 393.30 446.05 392.76
  Q 446.05 392.13 446.65 392.32
  Q 449.91 393.37 450.24 389.71
  A 0.32 0.32 0.0 0 0 449.75 389.42
  Z
  M 449.86 387.69
  A 1.44 1.44 0.0 0 0 448.42 386.25
  A 1.44 1.44 0.0 0 0 446.98 387.69
  A 1.44 1.44 0.0 0 0 448.42 389.13
  A 1.44 1.44 0.0 0 0 449.86 387.69
  Z"
/>
<path fill="#010101" d="
  M 455.32 392.20
  Q 454.42 393.31 455.76 392.82
  Q 457.26 392.27 458.58 392.87
  A 0.48 0.48 0.0 0 1 458.41 393.79
  L 452.86 394.08
  A 0.47 0.47 0.0 0 1 452.49 393.29
  L 456.39 389.01
  A 1.64 1.64 0.0 0 0 455.40 386.28
  Q 454.27 386.12 453.56 386.88
  A 0.47 0.46 65.4 0 1 452.76 386.58
  Q 452.71 385.59 453.84 385.33
  Q 454.37 385.20 456.17 385.26
  A 1.33 1.32 66.7 0 1 457.04 385.61
  C 459.44 387.83 456.68 390.52 455.32 392.20
  Z"
/>
<path fill="#010101" d="
  M 492.07 389.98
  L 492.78 390.41
  Q 493.20 390.65 493.26 391.14
  C 493.63 393.96 489.94 394.25 488.23 393.31
  Q 487.84 393.10 487.77 392.77
  Q 487.71 392.53 487.81 392.33
  Q 487.99 391.92 488.37 392.14
  Q 490.12 393.15 491.79 392.13
  A 0.66 0.65 -46.6 0 0 491.76 390.99
  L 489.52 389.83
  A 0.41 0.41 0.0 0 1 489.43 389.17
  Q 489.64 388.98 489.93 388.99
  Q 490.46 389.00 490.90 388.71
  Q 491.83 388.08 491.41 386.78
  A 0.82 0.82 0.0 0 0 490.46 386.23
  L 488.48 386.62
  Q 488.14 386.69 487.99 386.38
  Q 487.77 385.95 488.18 385.70
  C 491.13 383.99 495.19 387.18 492.05 389.25
  Q 491.47 389.63 492.07 389.98
  Z"
/>
<circle fill="#ffffff" cx="441.62" cy="387.47" r="1.30"/>
<circle fill="#ffffff" cx="448.42" cy="387.69" r="1.44"/>
<circle fill="#ffffff" cx="483.45" cy="387.67" r="1.46"/>
<path fill="#ffffff" d="
  M 477.03 386.75
  A 0.17 0.17 0.0 0 1 477.36 386.83
  L 477.24 390.39
  Q 477.22 391.00 476.61 391.00
  L 475.46 391.00
  A 0.35 0.35 0.0 0 1 475.15 390.50
  L 477.03 386.75
  Z"
/>
<circle fill="#ffffff" cx="441.48" cy="391.47" r="1.47"/>
</svg>
