<?xml version="1.0" standalone="no"?>
<!DOCTYPE svg PUBLIC "-//W3C//DTD SVG 1.0//EN" "http://www.w3.org/TR/2001/REC-SVG-20010904/DTD/svg10.dtd">
<svg xmlns="http://www.w3.org/2000/svg" xmlns:xlink="http://www.w3.org/1999/xlink" id="body_1" width="365" height="300">

<g transform="matrix(5 0 0 5 0 0)">
	<g transform="matrix(0.146 0 0 0.146 -0 0.7999992)">
		<g>
            <path d="M201.24 191.18C 200.18001 190.62668 199.47 189.76668 199.11 188.6C 199.00333 188.25334 199.07333 187.94667 199.32 187.68L199.32 187.68L204.11 182.64" stroke="#C0DAEE" stroke-width="2" fill="none" />
            <path d="M204.11 182.64C 215.80333 171.04668 227.59 159.32333 239.47 147.47C 246.81 140.14 257.55 131.08 265.82 129.48C 273.56668 127.98001 277.72 130.99 278.28 138.51C 278.90668 146.94333 279.01 163.18001 278.59 187.22C 278.58334 187.57333 278.72 187.86002 279 188.08C 279.51334 188.49335 280.08334 188.47 280.71 188.01" stroke="#90BADB" stroke-width="2" fill="none" />
            <path d="M280.71 188.01L285.4 187.44" stroke="#C0DAEE" stroke-width="2" fill="none" />
            <path d="M285.4 187.44L290.95 186.76" stroke="#90BADB" stroke-width="2" fill="none" />
            <path d="M290.95 186.76L295.38 186.34" stroke="#C0DAEE" stroke-width="2" fill="none" />
            <path d="M295.38 186.34L300.53 186.02" stroke="#90BADB" stroke-width="2" fill="none" />
            <path d="M300.53 186.02C 301.21667 186.28 302.04 186.18333 303 185.73C 303.34003 185.57 303.46667 185.31 303.38 184.95C 303.20667 184.25 303.29666 183.78333 303.65 183.55" stroke="#C0DAEE" stroke-width="2" fill="none" />
            <path d="M303.65 183.55C 303.79 170.74333 303.81 157.97333 303.71 145.24C 303.65 138.4 303.82 129.37 312.94 128.69C 315.72 128.48334 318.53333 128.25334 321.38 128C 321.89505 127.95584 322.34692 127.638985 322.56393 127.1698C 322.78098 126.70062 322.72986 126.15111 322.43 125.73C 322.10333 125.263336 321.45667 125.013336 320.49 124.98C 314.43 124.76001 308.37 124.75334 302.31 124.96C 287.83 125.45 273.81 124.53 259.5 124.96C 249.48 125.26 240.2 124.86 230.5 124.73C 228.65335 124.70334 227.54668 125.25001 227.18 126.37C 227.04736 126.76972 227.23123 127.20587 227.61 127.39L227.61 127.39L231.56 129.27C 231.75455 129.3676 231.91273 129.52931 232.01 129.73C 233.11002 132.17 232.70668 134.62334 230.8 137.09C 216 156.22 198.01 173.51 181.22 190.91C 181.09253 191.03897 180.9001 191.07884 180.73189 191.01111C 180.56367 190.94339 180.45255 190.78133 180.45 190.6C 180.20334 175.36667 180.20001 160.08334 180.44 144.75C 180.64 132.01 182.07 129.23 195.15 127.99C 195.77724 127.927956 196.29254 127.46781 196.42493 126.85158C 196.5573 126.235344 196.27641 125.60417 195.73 125.29C 193.04 123.77 179.55 124.84 175.74 124.99C 163.82 125.46 151.93 124.76 139.97 124.74C 138.44 124.73 136.21 124.39 136.28 126.52C 136.31198 127.41663 137.04285 128.1299 137.94 128.14C 155.39 128.37 155.99 133.37 155.97 149C 155.95001 177.02667 155.98001 204.99667 156.06 232.91C 156.06018 232.98851 156.10219 233.06097 156.17023 233.10014C 156.23827 233.13931 156.322 233.13927 156.39 233.1L156.39 233.1L179.52 219.84C 179.94804 219.59097 180.21382 219.13914 180.22 218.65L180.22 218.65L180.44 199.47C 180.44557 199.29784 180.55693 199.14565 180.71832 199.0896C 180.87971 199.03355 181.05643 199.08574 181.16 199.22L181.16 199.22L192.26 213.01C 192.47334 213.26999 192.73334 213.33333 193.04 213.2L193.04 213.2L212.75 204.91C 212.8565 204.86758 212.93549 204.77568 212.96141 204.664C 212.98735 204.55232 212.95692 204.43503 212.88 204.35L212.88 204.35L201.24 191.18" stroke="#90BADB" stroke-width="2" fill="none" />
            <path d="M303.65 183.55C 303.18335 183.32333 302.80334 183.02335 302.51 182.65C 302.31 182.39 302.05 182.22 301.73 182.14C 297.7 181.21 291.65 181.68 290.95 186.76" stroke="#5195CA" stroke-width="2" fill="none" />
            <path d="M285.4 187.44L285.27 182.82C 285.25665 182.44 285.06 182.25 284.68 182.25L284.68 182.25L281.72 182.25C 281.35336 182.25 281.15668 182.43 281.13 182.79L281.13 182.79L280.71 188.01" stroke="#5195CA" stroke-width="2" fill="none" />
            <path d="M204.11 182.64C 201.73 182.40666 200.67667 181.52333 200.95 179.99C 201.74335 175.63 204.15335 174.22 208.18 175.76C 208.73195 175.97136 209.35722 175.80775 209.73492 175.35315C 210.11264 174.89854 210.15892 174.25389 209.85 173.75C 208.66 171.77 207.3 171.91 204.96 171.99C 199.16669 172.20334 196.50668 175.34 196.98 181.4C 197.00668 181.71333 196.86668 181.88666 196.56 181.92L196.56 181.92L193.72 182.26C 193.3 182.30667 193.08334 182.54001 193.07 182.96L193.07 182.96L193 184.75C 192.98666 185.18333 193.19667 185.38666 193.63 185.36L193.63 185.36L196.27 185.21C 196.44125 185.19894 196.60942 185.25934 196.7345 185.37683C 196.85957 185.49432 196.93036 185.6584 196.93 185.83L196.93 185.83L197 203.25C 197.00002 203.58334 197.16669 203.75002 197.5 203.75L197.5 203.75L200.43 203.75C 200.83 203.75002 201.03334 203.55002 201.04 203.15L201.04 203.15L201.24 191.18" stroke="#5195CA" stroke-width="2" fill="none" />
            <path d="M300.53 186.02C 299.33002 184.7 297.61334 184.80667 295.38 186.34" stroke="#5195CA" stroke-width="2" fill="none" />
            <path d="M305.75 188.39L301.78 188.74" stroke="#C4C4D6" stroke-width="2" fill="none" />
            <path d="M301.78 188.74L285.22 191.03" stroke="#9393AF" stroke-width="2" fill="none" />
            <path d="M285.22 191.03L281.04 191.69" stroke="#C4C4D6" stroke-width="2" fill="none" />
            <path d="M281.04 191.69L274.85 192.96" stroke="#9393AF" stroke-width="2" fill="none" />
            <path d="M274.85 192.96L270.28 193.81" stroke="#C4C4D6" stroke-width="2" fill="none" />
            <path d="M270.28 193.81L265.96 194.84" stroke="#9393AF" stroke-width="2" fill="none" />
            <path d="M265.96 194.84L261.15 195.99" stroke="#C4C4D6" stroke-width="2" fill="none" />
            <path d="M261.15 195.99L252.33 198.34" stroke="#9393AF" stroke-width="2" fill="none" />
            <path d="M252.33 198.34C 251.01668 198.37335 249.62335 198.77002 248.15 199.53" stroke="#C4C4D6" stroke-width="2" fill="none" />
            <path d="M248.15 199.53L243.66 200.67" stroke="#9393AF" stroke-width="2" fill="none" />
            <path d="M243.66 200.67L236.21 203.15" stroke="#C4C4D6" stroke-width="2" fill="none" />
            <path d="M236.21 203.15C 234.11667 203.73666 232.02335 204.41333 229.93 205.18C 182.34 222.63 140 249.26 101.7 282.25C 101.4 282.50336 101.41 282.75 101.73 282.99L101.73 282.99L125.07 300.51C 125.24334 300.64334 125.41 300.63 125.57 300.47L125.57 300.47L151.71 274.8C 151.83888 274.67154 152.00673 274.59656 152.18 274.59C 165.57333 274.13 178.96 274.1967 192.34 274.79C 194.71 274.9 196.68 274.66 198.9 274.25C 199.99333 274.05002 200.44 273.40002 200.24 272.3C 200.1476 271.79703 199.7208 271.4241 199.21 271.4C 195.31 271.17 188.52 271.09 185.24 269.23C 180.39 266.48 180.43 255.94 180.65 251.23C 180.67 250.75667 180.87666 250.39001 181.27 250.13L181.27 250.13L207.69 232.29C 208.10101 232.01186 208.65508 232.08488 208.98 232.46C 219.39 244.44 229.98 257.38 242.45 267.28C 250.42 273.61 259.52 274.9 269.25 274.81C 286.32 274.65 302.82 274.38 320.43 274.89C 330.32333 275.17 341.01334 275.28003 352.5 275.22C 356.89 275.2 359.96 274.53 361 269.75C 362.74667 261.66333 363.69 253.48668 363.83 245.22C 363.83 244.92001 363.73666 244.65335 363.55 244.42C 362.98334 243.73999 362.2967 243.59 361.49 243.97C 360.91608 244.24527 360.51813 244.78963 360.43 245.42C 359.44 252.57 355.5 261.55 347.51 263.03C 339.8 264.47 307.89 267.32 305.4 255.53C 303.8 247.95667 303.27335 238.53 303.82 227.25C 303.87335 226.10333 303.70667 225.16333 303.32 224.43" stroke="#9393AF" stroke-width="2" fill="none" />
            <path d="M303.32 224.43C 303.23334 224.27667 303.21667 224.05667 303.27 223.77" stroke="#C4C4D6" stroke-width="2" fill="none" />
            <path d="M303.27 223.77C 303.67667 223.40335 303.85 222.98001 303.79 222.5C 303.04 216.5 303.54 209.99 303.61 204.09" stroke="#9393AF" stroke-width="2" fill="none" />
            <path d="M303.61 204.09C 303.57 201.48 302.13 195.61 305.99 195.61" stroke="#C4C4D6" stroke-width="2" fill="none" />
            <path d="M305.99 195.61C 323.08334 192.77002 340.25336 191.40334 357.5 191.51C 369.6 191.58 384.22 193.66 397.62 194.38C 397.7067 194.38 397.78003 194.35333 397.84 194.3C 397.87335 194.26666 397.90002 194.23666 397.92 194.21C 398.02002 194.07666 397.97333 193.98999 397.78 193.95C 367.38666 187.54333 336.71002 185.69 305.75 188.39" stroke="#9393AF" stroke-width="2" fill="none" />
            <path d="M305.99 195.61L305.75 188.39" stroke="#585886" stroke-width="2" fill="none" />
            <path d="M303.61 204.09C 302.65002 203.80334 302.00336 203.12668 301.67 202.06C 301.56335 201.71333 301.3867 201.67 301.14 201.93C 298.66 204.55 292.11 205.48 290.53 201.18C 287.97 194.21 294.9 191.31 300.82 191.55C 301.15335 191.57 301.39667 191.43001 301.55 191.13C 301.99667 190.27 302.07336 189.47333 301.78 188.74" stroke="#585886" stroke-width="2" fill="none" />
            <path d="M303.27 223.77C 301.99 223.87668 300.89667 223.35333 299.99 222.2C 299.72333 221.86626 299.66565 221.41147 299.8405 221.02173C 300.01535 220.63199 300.39343 220.37271 300.82 220.35L300.82 220.35L302.69 220.24C 302.96893 220.23448 303.19507 220.0039 303.19507 219.725C 303.19507 219.44609 302.96893 219.22447 302.69 219.23L302.69 219.23L300.39 219.11C 300.25076 219.10219 300.12503 219.02412 300.05627 218.90279C 299.9875 218.78145 299.98514 218.63347 300.05 218.51C 300.58334 217.54333 301.40335 216.95999 302.51 216.76C 302.7442 216.71764 302.91608 216.5161 302.92093 216.27817C 302.92578 216.04024 302.76227 215.83186 302.53 215.78C 296.76 214.54 296.51 226.69 303.32 224.43" stroke="#585886" stroke-width="2" fill="none" />
            <path d="M236.21 203.15C 238.63669 204.31668 241.08002 204.54333 243.54 203.83C 243.89334 203.73001 244.04669 203.5 244 203.14L244 203.14L243.66 200.67" stroke="#585886" stroke-width="2" fill="none" />
            <path d="M248.15 199.53C 253.47 207.65 265.21 205.19 265.96 194.84" stroke="#585886" stroke-width="2" fill="none" />
            <path d="M270.28 193.81L270.57 204.12" stroke="#585886" stroke-width="2" fill="none" />
            <path d="M270.57 204.12C 259.47 207.75336 248.37334 211.93668 237.28 216.67" stroke="#9393AF" stroke-width="2" fill="none" />
            <path d="M237.28 216.67C 236.24 215.42334 235.71333 213.77002 235.7 211.71C 235.71211 211.44855 235.52054 211.22198 235.2607 211.19049C 235.00087 211.159 234.76071 211.3332 234.71 211.59C 234.27667 213.45001 234.29333 215.55002 234.76 217.89" stroke="#585886" stroke-width="2" fill="none" />
            <path d="M234.76 217.89L228.84 220.85C 228.72221 220.90926 228.63908 221.02037 228.6155 221.15009C 228.5919 221.27982 228.6306 221.41309 228.72 221.51C 238.36 232.21667 248.27 242.48001 258.45 252.3C 263.74335 257.40668 269.50336 261.87 275.73 265.69C 275.9134 265.80487 276.14172 265.82104 276.3412 265.7333C 276.54065 265.64554 276.6859 265.46497 276.73 265.25C 279.35 251.76 278.68 236.94 278.79 223.13" stroke="#9393AF" stroke-width="2" fill="none" />
            <path d="M278.79 223.13C 282.88336 226.00336 285.42 225.20001 286.4 220.72C 287.45 215.94 282.04 213.99 278.76 217.42" stroke="#585886" stroke-width="2" fill="none" />
            <path d="M278.76 217.42L278.73 202.46C 278.73 202.05334 278.53336 201.89668 278.14 201.99L278.14 201.99L275.17 202.74" stroke="#9393AF" stroke-width="2" fill="none" />
            <path d="M275.17 202.74L274.85 192.96" stroke="#585886" stroke-width="2" fill="none" />
            <path d="M281.04 191.69L280.92 202.59C 280.91583 202.95378 281.06552 203.30243 281.33212 203.54999C 281.59872 203.79756 281.9575 203.92104 282.32 203.89L282.32 203.89L284.8 203.69C 285.08667 203.67001 285.23004 203.51335 285.23 203.22L285.23 203.22L285.22 191.03" stroke="#585886" stroke-width="2" fill="none" />
            <path d="M278.76 217.42L279.35 219.26" stroke="#C4C4D6" stroke-width="2" fill="none" />
            <path d="M279.35 219.26L279.18 220.46" stroke="#9393AF" stroke-width="2" fill="none" />
            <path d="M279.18 220.46L278.79 223.13" stroke="#C4C4D6" stroke-width="2" fill="none" />
            <path d="M234.76 217.89C 235.64001 217.67001 236.48001 217.26334 237.28 216.67" stroke="#C4C4D6" stroke-width="2" fill="none" />
            <path d="M275.17 202.74L270.57 204.12" stroke="#C4C4D6" stroke-width="2" fill="none" />
            <path d="M252.33 198.34C 254.79 203.12 260.84 201.23 261.15 195.99" stroke="#585886" stroke-width="2" fill="none" />
            <path d="M279.18 220.46C 279.62 222.5 281.52 224.64 283.73 223.27C 287.84 220.72 282.41 212.88 279.35 219.26" stroke="#585886" stroke-width="2" fill="none" />
            <path d="M434.79 388.14C 435.62335 388.76 436.44336 388.70334 437.25 387.97C 437.6767 387.59 437.6567 387.23334 437.19 386.9C 436.72336 386.56668 436.61334 386.13 436.86 385.59C 436.98 385.33002 436.91003 385.14337 436.65 385.03C 436.46332 384.95 436.30667 384.95 436.18 385.03C 436.03336 385.12335 435.97003 385.2834 435.99 385.51C 435.9967 385.68335 436.04004 385.85333 436.12 386.02C 436.22003 386.25336 436.18335 386.4567 436.01 386.63C 435.6167 387.02335 435.1167 387.14 434.51 386.98C 434.15668 386.8867 434.01334 386.65668 434.08 386.29L434.08 386.29L434.28 385.28C 434.2954 385.21094 434.27817 385.13864 434.23325 385.08395C 434.18832 385.02927 434.12073 384.99832 434.05 385C 433.92334 385.00003 433.8 385.00003 433.68 385C 433.57745 384.9973 433.4782 385.03616 433.4048 385.10773C 433.33136 385.1793 433.28995 385.2775 433.29 385.38C 433.30334 386.22003 432.95 386.85 432.23 387.27C 431.87 387.48334 431.86334 387.70667 432.21 387.94C 432.86334 388.38 433.01 388.95337 432.65 389.66C 432.5567 389.85333 432.3967 390.00336 432.17 390.11C 431.97668 390.20337 431.77335 390.27002 431.56 390.31C 431.2 390.39 431.18335 390.51 431.51 390.67C 432.64334 391.22333 432.86002 392.07 432.16 393.21C 432.02487 393.44705 432.08786 393.74768 432.30676 393.91058C 432.52567 394.0735 432.8317 394.04752 433.02 393.85C 433.54 393.27002 433.6367 392.6167 433.31 391.89C 433.08334 391.39 433.24335 391.12 433.79 391.08L433.79 391.08L434.81 391C 434.98697 390.9869 435.1576 391.0686 435.25836 391.21463C 435.35916 391.36066 435.375 391.54916 435.3 391.71C 435.00668 392.34335 434.92334 393.00668 435.05 393.7C 435.10736 393.93948 435.32825 394.04877 435.56354 393.95416C 435.7988 393.85953 435.97363 393.59106 435.97 393.33C 435.85666 391.77002 436.25 390.91 437.15 390.75C 437.59668 390.67 437.63666 390.49335 437.27 390.22L437.27 390.22L436.7 389.79C 436.4667 389.6167 436.21338 389.56335 435.94 389.63L435.94 389.63L434.24 390.05C 433.66 390.19 433.45334 389.97333 433.62 389.4L433.62 389.4L433.88 388.46C 433.93277 388.27292 434.073 388.12292 434.25488 388.05896C 434.43677 387.99503 434.63693 388.02533 434.79 388.14" stroke="#808080" stroke-width="2" fill="none" />
            <path d="M443.34 389.04C 444.19333 388.26666 444.37335 387.36667 443.88 386.34C 442.57 383.59 437.28 385.62 439.91 389.12C 439.99377 389.23264 440.02933 389.37372 440.0086 389.5112C 439.9879 389.64868 439.91266 389.77087 439.8 389.85C 439.01334 390.3967 438.66333 391.15668 438.75 392.13C 438.79 392.54333 438.98334 392.87 439.33 393.11C 440.85 394.1767 442.37335 394.1667 443.9 393.08C 444.21863 392.85635 444.42914 392.5043 444.48 392.11C 444.6 391.13004 444.2367 390.36005 443.39 389.8C 443.0567 389.57336 443.04 389.32 443.34 389.04" stroke="#808080" stroke-width="2" fill="none" />
            <path d="M462.25 387.4L462.24 392.11C 462.24 392.40335 462.09668 392.5767 461.81 392.63L461.81 392.63L460.36 392.91C 460.08057 392.96396 459.88843 393.22214 459.91702 393.50528C 459.9456 393.78842 460.18542 394.003 460.47 394L460.47 394L464.66 394C 464.91998 394.00003 465.1 393.88336 465.2 393.65C 465.26004 393.52335 465.2767 393.39 465.25 393.25C 465.19003 392.95 465.0067 392.82 464.7 392.86C 463.95337 392.97336 463.55002 392.69003 463.49 392.01C 463.3967 390.93002 463.46338 388.78003 463.69 385.56C 463.70746 385.3516 463.61356 385.1498 463.4421 385.02734C 463.27066 384.90488 463.04636 384.87936 462.85 384.96L462.85 384.96L460.24 386.02C 460.06964 386.09616 459.9745 386.28314 460.01373 386.4646C 460.05298 386.64606 460.21542 386.77032 460.4 386.76C 460.88 386.72668 461.35333 386.76 461.82 386.86C 462.11334 386.92 462.25668 387.1 462.25 387.4" stroke="#808080" stroke-width="2" fill="none" />
            <path d="M469.08 387.24L469.15 392.17C 469.15268 392.32294 469.0938 392.4705 468.9866 392.57956C 468.87943 392.68863 468.7329 392.75006 468.58 392.75L468.58 392.75L467.26 392.75C 467.13336 392.75 467.05334 392.81 467.02 392.93C 466.97336 393.07666 466.97336 393.23 467.02 393.39C 467.12668 393.78336 467.38 393.97668 467.78 393.97L467.78 393.97L472.19 393.88C 472.41724 393.8645 472.60068 393.6883 472.6253 393.46185C 472.6499 393.2354 472.5086 393.02393 472.29 392.96L472.29 392.96L471.02 392.66C 470.64667 392.56665 470.46335 392.33002 470.47 391.95L470.47 391.95L470.57 385.59C 470.57666 385.09668 470.34332 384.9267 469.87 385.08L469.87 385.08L467.45 385.85C 466.71002 386.08334 466.71667 386.29333 467.47 386.48L467.47 386.48L468.73 386.8C 468.9567 386.85333 469.07336 387 469.08 387.24" stroke="#808080" stroke-width="2" fill="none" />
            <path d="M479.13 392.19L479.45 391.95C 479.77002 391.71667 479.77335 391.47336 479.46 391.22L479.46 391.22L478.91 390.77C 478.60333 390.51666 478.46667 390.1967 478.5 389.81L478.5 389.81L478.82 386.08C 478.87112 385.49283 478.50186 384.95084 477.93677 384.7835C 477.37164 384.61618 476.76685 384.86972 476.49 385.39L476.49 385.39L473.43 391.06C 473.2763 391.3388 473.35782 391.69067 473.62 391.88C 474.22003 392.32004 474.88 392.41336 475.6 392.16C 475.89337 392.06003 476.19 392.0467 476.49 392.12C 477.0567 392.26 477.3067 392.6167 477.24 393.19C 477.16827 393.57294 477.4213 393.93707 477.80515 394.00333C 478.18896 394.0696 478.5583 393.81293 478.63 393.43L478.63 393.43L478.8 392.69C 478.84668 392.48334 478.95667 392.31668 479.13 392.19" stroke="#808080" stroke-width="2" fill="none" />
            <path d="M485.19 389.97C 485.04337 391.15668 484.47336 392.01337 483.48 392.54C 483.14783 392.7223 482.74475 392.72974 482.4 392.56L482.4 392.56L481.8 392.27C 481.49347 392.1126 481.1174 392.2335 480.96002 392.54004C 480.8026 392.84656 480.9235 393.22263 481.23 393.38C 486.98 396.54 488.43 385.12 483.38 385.04C 479.43 384.98 479.63 391.8 484.68 389.59C 485.07333 389.42334 485.24335 389.55 485.19 389.97" stroke="#808080" stroke-width="2" fill="none" />
            <path d="M450.24 389.71C 450.02002 392.15002 448.82333 393.02002 446.65 392.32C 446.25 392.19336 446.05 392.34003 446.05 392.76C 446.05 393.12003 446.2 393.37003 446.5 393.51C 452.4 396.24 453.68 383.4 447 385.43C 446.35117 385.6242 445.8279 386.10635 445.58023 386.7383C 445.33252 387.37024 445.38773 388.08215 445.73 388.67C 446.6767 390.29 448.01666 390.54 449.75 389.42C 449.8515 389.35605 449.9803 389.35428 450.08353 389.41537C 450.1868 389.47647 450.2472 389.5902 450.24 389.71" stroke="#808080" stroke-width="2" fill="none" />
            <path d="M455.32 392.2C 456.68 390.52 459.44 387.83 457.04 385.61C 456.80154 385.39087 456.49216 385.2664 456.17 385.26C 454.97 385.22003 454.19333 385.24335 453.84 385.33C 453.08667 385.50333 452.72668 385.91998 452.76 386.58C 452.7722 386.7669 452.89282 386.93036 453.06683 386.99564C 453.24084 387.06088 453.43478 387.0154 453.56 386.88C 454.03336 386.37335 454.64667 386.17334 455.4 386.28C 456.00388 386.3624 456.51224 386.7729 456.72 387.34583C 456.9278 387.9188 456.8007 388.5597 456.39 389.01L456.39 389.01L452.49 393.29C 452.35898 393.43033 452.3265 393.63623 452.40793 393.81006C 452.48935 393.98392 452.6683 394.09076 452.86 394.08L452.86 394.08L458.41 393.79C 458.63345 393.78036 458.8206 393.6176 458.86124 393.3977C 458.90186 393.17776 458.78522 392.95892 458.58 392.87C 457.7 392.47 456.76004 392.45334 455.76 392.82C 454.8667 393.14667 454.72003 392.94 455.32 392.2" stroke="#808080" stroke-width="2" fill="none" />
            <path d="M492.05 389.25C 495.19 387.18 491.13 383.99 488.18 385.7C 487.90668 385.8667 487.84332 386.09335 487.99 386.38C 488.09003 386.58667 488.25336 386.6667 488.48 386.62L488.48 386.62L490.46 386.23C 490.87076 386.1431 491.28085 386.3805 491.41 386.78C 491.69 387.64667 491.52 388.29 490.9 388.71C 490.60666 388.90335 490.28333 388.99667 489.93 388.99C 489.7367 388.98334 489.57004 389.04333 489.43 389.17C 489.3341 389.2608 489.28784 389.39224 489.30566 389.52307C 489.32352 389.65393 489.4033 389.76816 489.52 389.83L489.52 389.83L491.76 390.99C 491.96854 391.0976 492.10132 391.3101 492.1075 391.54617C 492.11374 391.78223 491.99243 392.0053 491.79 392.13C 490.6767 392.81 489.53668 392.81335 488.37 392.14C 488.11667 391.99338 487.93 392.0567 487.81 392.33C 487.74335 392.46335 487.73 392.61002 487.77 392.77C 487.81668 392.99002 487.97003 393.17 488.23 393.31C 489.94 394.25 493.63 393.96 493.26 391.14C 493.22003 390.81335 493.06003 390.57 492.78 390.41L492.78 390.41L492.07 389.98C 491.67 389.7467 491.66333 389.50336 492.05 389.25" stroke="#808080" stroke-width="2" fill="none" />
            <path d="M285.7671 173.1263C 285.77057 172.79495 285.50482 172.52351 285.1735 172.52L285.1735 172.52L281.3737 172.4802C 281.21457 172.47852 281.06128 172.54012 280.94757 172.65146C 280.83386 172.7628 280.76907 172.91476 280.7674 173.0739L280.7674 173.0739L280.7329 176.3737C 280.72943 176.70505 280.99518 176.97649 281.3265 176.98L281.3265 176.98L285.1263 177.0198C 285.28543 177.02148 285.43872 176.95988 285.55243 176.84854C 285.66614 176.7372 285.73093 176.58524 285.7326 176.4261L285.7326 176.4261L285.7671 173.1263" stroke="#5195CA" stroke-width="2" fill="none" />
            <path d="M294.5 198.95L296.42 201.05C 296.85687 201.52376 297.59457 201.55505 298.07 201.12L298.07 201.12L299.22 200.06C 301.4197 198.0453 302.45752 195.59392 301.54 194.58L301.54 194.58L301.39 194.42C 300.9457 193.93394 300.09833 193.85373 299.03473 194.197C 297.9711 194.5403 296.77853 195.2789 295.72 196.25L295.72 196.25L294.57 197.3C 294.09625 197.73686 294.06497 198.47458 294.5 198.95" stroke="#585886" stroke-width="2" fill="none" />
            <path d="M290.27 215.02C 290.22998 214.00668 290.22333 213.00002 290.25 212C 290.26334 211.26001 289.86002 211.05 289.04 211.37C 288.84668 211.44333 288.75 211.58333 288.75 211.79L288.75 211.79L288.75 223.24C 288.7494 223.7281 288.94922 224.19504 289.30276 224.53157C 289.6563 224.8681 290.1325 225.04468 290.62 225.02C 298.53 224.61 298.7 214.82 290.82 215.51C 290.46667 215.54333 290.28333 215.38 290.27 215.02" stroke="#585886" stroke-width="2" fill="none" />
            <path d="M290.26 217.75L290.24 222.73C 290.23993 223.19556 290.61444 223.57452 291.08 223.58L291.08 223.58L291.83 223.59C 292.66992 223.59544 293.47742 223.27682 294.0741 222.70453C 294.67078 222.13225 295.00754 221.35338 295.01 220.54L295.01 220.54L295.01 219.98C 295.01517 218.29404 293.61102 216.92123 291.87 216.91L291.87 216.91L291.12 216.9C 290.89285 216.89732 290.67407 216.9857 290.51248 217.1454C 290.35092 217.3051 290.26 217.52283 290.26 217.75" stroke="#585886" stroke-width="2" fill="none" />
            <path d="M442.92 387.47C 442.92 387.1252 442.78305 386.79456 442.53925 386.55075C 442.29544 386.30695 441.96478 386.16998 441.62 386.17C 440.902 386.17 440.32 386.752 440.32 387.47C 440.32 388.188 440.902 388.77 441.62 388.77C 441.96478 388.77002 442.29544 388.63306 442.53925 388.38925C 442.78305 388.14545 442.92 387.8148 442.92 387.47" stroke="#808080" stroke-width="2" fill="none" />
            <path d="M442.95 391.47C 442.95004 391.0801 442.79517 390.7062 442.5195 390.4305C 442.2438 390.15485 441.8699 389.99997 441.48 390C 441.09012 389.99997 440.71622 390.15485 440.44052 390.4305C 440.16486 390.7062 440.00998 391.0801 440.01 391.47C 440.00998 391.8599 440.16486 392.2338 440.44052 392.5095C 440.71622 392.78516 441.09012 392.94003 441.48 392.94C 441.8699 392.94003 442.2438 392.78516 442.5195 392.5095C 442.79517 392.2338 442.95004 391.8599 442.95 391.47" stroke="#808080" stroke-width="2" fill="none" />
            <path d="M477.03 386.75L475.15 390.5C 475.099 390.60742 475.10605 390.7334 475.16873 390.83447C 475.23138 390.93555 475.3411 390.9979 475.46 391L475.46 391L476.61 391C 477.01666 391.00003 477.22668 390.7967 477.24 390.39L477.24 390.39L477.36 386.83C 477.3767 386.7411 477.3209 386.65466 477.23297 386.63333C 477.14505 386.61203 477.05585 386.6633 477.03 386.75" stroke="#808080" stroke-width="2" fill="none" />
            <path d="M484.91 387.67C 484.90997 387.28278 484.75616 386.91144 484.48236 386.6376C 484.20856 386.3638 483.83722 386.21 483.45 386.21C 483.06277 386.21 482.6914 386.3638 482.4176 386.6376C 482.1438 386.9114 481.99 387.28278 481.99 387.67C 481.99 388.05725 482.1438 388.4286 482.4176 388.7024C 482.69144 388.9762 483.06277 389.13 483.45 389.13C 484.25632 389.13 484.90997 388.47635 484.91 387.67" stroke="#808080" stroke-width="2" fill="none" />
            <path d="M449.86 387.69C 449.86002 386.8947 449.21533 386.25003 448.42 386.25C 448.03812 386.25 447.67184 386.4017 447.4018 386.67178C 447.1317 386.94183 446.98 387.3081 446.98 387.69C 446.98 388.0719 447.1317 388.43817 447.4018 388.70822C 447.67184 388.9783 448.03812 389.13 448.42 389.13C 449.21533 389.12997 449.86002 388.4853 449.86 387.69" stroke="#808080" stroke-width="2" fill="none" />
		</g>
        <path d="M0 0L500 0L500 400L0 400L0 0zM201.24 191.18C 200.18001 190.62668 199.47 189.76668 199.11 188.6C 199.00333 188.25334 199.07333 187.94667 199.32 187.68L199.32 187.68L204.11 182.64C 215.80333 171.04668 227.59 159.32333 239.47 147.47C 246.81 140.14 257.55 131.08 265.82 129.48C 273.56668 127.98001 277.72 130.99 278.28 138.51C 278.90668 146.94333 279.01 163.18001 278.59 187.22C 278.58334 187.57333 278.72 187.86002 279 188.08C 279.51334 188.49335 280.08334 188.47 280.71 188.01L280.71 188.01L285.4 187.44L290.95 186.76L295.38 186.34L300.53 186.02C 301.21667 186.28 302.04 186.18333 303 185.73C 303.34003 185.57 303.46667 185.31 303.38 184.95C 303.20667 184.25 303.29666 183.78333 303.65 183.55C 303.79 170.74333 303.81 157.97333 303.71 145.24C 303.65 138.4 303.82 129.37 312.94 128.69C 315.72 128.48334 318.53333 128.25334 321.38 128C 321.89505 127.95584 322.34692 127.638985 322.56393 127.1698C 322.78098 126.70062 322.72986 126.15111 322.43 125.73C 322.10333 125.263336 321.45667 125.013336 320.49 124.98C 314.43 124.76001 308.37 124.75334 302.31 124.96C 287.83 125.45 273.81 124.53 259.5 124.96C 249.48 125.26 240.2 124.86 230.5 124.73C 228.65335 124.70334 227.54668 125.25001 227.18 126.37C 227.04736 126.76972 227.23123 127.20587 227.61 127.39L227.61 127.39L231.56 129.27C 231.75455 129.3676 231.91273 129.52931 232.01 129.73C 233.11002 132.17 232.70668 134.62334 230.8 137.09C 216 156.22 198.01 173.51 181.22 190.91C 181.09253 191.03897 180.9001 191.07884 180.73189 191.01111C 180.56367 190.94339 180.45255 190.78133 180.45 190.6C 180.20334 175.36667 180.20001 160.08334 180.44 144.75C 180.64 132.01 182.07 129.23 195.15 127.99C 195.77724 127.927956 196.29254 127.46781 196.42493 126.85158C 196.5573 126.235344 196.27641 125.60417 195.73 125.29C 193.04 123.77 179.55 124.84 175.74 124.99C 163.82 125.46 151.93 124.76 139.97 124.74C 138.44 124.73 136.21 124.39 136.28 126.52C 136.31198 127.41663 137.04285 128.1299 137.94 128.14C 155.39 128.37 155.99 133.37 155.97 149C 155.95001 177.02667 155.98001 204.99667 156.06 232.91C 156.06018 232.98851 156.10219 233.06097 156.17023 233.10014C 156.23827 233.13931 156.322 233.13927 156.39 233.1L156.39 233.1L179.52 219.84C 179.94804 219.59097 180.21382 219.13914 180.22 218.65L180.22 218.65L180.44 199.47C 180.44557 199.29784 180.55693 199.14565 180.71832 199.0896C 180.87971 199.03355 181.05643 199.08574 181.16 199.22L181.16 199.22L192.26 213.01C 192.47334 213.26999 192.73334 213.33333 193.04 213.2L193.04 213.2L212.75 204.91C 212.8565 204.86758 212.93549 204.77568 212.96141 204.664C 212.98735 204.55232 212.95692 204.43503 212.88 204.35L212.88 204.35L201.24 191.18zM305.75 188.39L301.78 188.74L285.22 191.03L281.04 191.69L274.85 192.96L270.28 193.81L265.96 194.84L261.15 195.99L252.33 198.34C 251.01668 198.37335 249.62335 198.77002 248.15 199.53L248.15 199.53L243.66 200.67L236.21 203.15C 234.11667 203.73666 232.02335 204.41333 229.93 205.18C 182.34 222.63 140 249.26 101.7 282.25C 101.4 282.50336 101.41 282.75 101.73 282.99L101.73 282.99L125.07 300.51C 125.24334 300.64334 125.41 300.63 125.57 300.47L125.57 300.47L151.71 274.8C 151.83888 274.67154 152.00673 274.59656 152.18 274.59C 165.57333 274.13 178.96 274.1967 192.34 274.79C 194.71 274.9 196.68 274.66 198.9 274.25C 199.99333 274.05002 200.44 273.40002 200.24 272.3C 200.1476 271.79703 199.7208 271.4241 199.21 271.4C 195.31 271.17 188.52 271.09 185.24 269.23C 180.39 266.48 180.43 255.94 180.65 251.23C 180.67 250.75667 180.87666 250.39001 181.27 250.13L181.27 250.13L207.69 232.29C 208.10101 232.01186 208.65508 232.08488 208.98 232.46C 219.39 244.44 229.98 257.38 242.45 267.28C 250.42 273.61 259.52 274.9 269.25 274.81C 286.32 274.65 302.82 274.38 320.43 274.89C 330.32333 275.17 341.01334 275.28003 352.5 275.22C 356.89 275.2 359.96 274.53 361 269.75C 362.74667 261.66333 363.69 253.48668 363.83 245.22C 363.83 244.92001 363.73666 244.65335 363.55 244.42C 362.98334 243.73999 362.2967 243.59 361.49 243.97C 360.91608 244.24527 360.51813 244.78963 360.43 245.42C 359.44 252.57 355.5 261.55 347.51 263.03C 339.8 264.47 307.89 267.32 305.4 255.53C 303.8 247.95667 303.27335 238.53 303.82 227.25C 303.87335 226.10333 303.70667 225.16333 303.32 224.43C 303.23334 224.27667 303.21667 224.05667 303.27 223.77C 303.67667 223.40335 303.85 222.98001 303.79 222.5C 303.04 216.5 303.54 209.99 303.61 204.09C 303.57 201.48 302.13 195.61 305.99 195.61C 323.08334 192.77002 340.25336 191.40334 357.5 191.51C 369.6 191.58 384.22 193.66 397.62 194.38C 397.7067 194.38 397.78003 194.35333 397.84 194.3C 397.87335 194.26666 397.90002 194.23666 397.92 194.21C 398.02002 194.07666 397.97333 193.98999 397.78 193.95C 367.38666 187.54333 336.71002 185.69 305.75 188.39zM434.79 388.14C 435.62335 388.76 436.44336 388.70334 437.25 387.97C 437.6767 387.59 437.6567 387.23334 437.19 386.9C 436.72336 386.56668 436.61334 386.13 436.86 385.59C 436.98 385.33002 436.91003 385.14337 436.65 385.03C 436.46332 384.95 436.30667 384.95 436.18 385.03C 436.03336 385.12335 435.97003 385.2834 435.99 385.51C 435.9967 385.68335 436.04004 385.85333 436.12 386.02C 436.22003 386.25336 436.18335 386.4567 436.01 386.63C 435.6167 387.02335 435.1167 387.14 434.51 386.98C 434.15668 386.8867 434.01334 386.65668 434.08 386.29L434.08 386.29L434.28 385.28C 434.2954 385.21094 434.27817 385.13864 434.23325 385.08395C 434.18832 385.02927 434.12073 384.99832 434.05 385C 433.92334 385.00003 433.8 385.00003 433.68 385C 433.57745 384.9973 433.4782 385.03616 433.4048 385.10773C 433.33136 385.1793 433.28995 385.2775 433.29 385.38C 433.30334 386.22003 432.95 386.85 432.23 387.27C 431.87 387.48334 431.86334 387.70667 432.21 387.94C 432.86334 388.38 433.01 388.95337 432.65 389.66C 432.5567 389.85333 432.3967 390.00336 432.17 390.11C 431.97668 390.20337 431.77335 390.27002 431.56 390.31C 431.2 390.39 431.18335 390.51 431.51 390.67C 432.64334 391.22333 432.86002 392.07 432.16 393.21C 432.02487 393.44705 432.08786 393.74768 432.30676 393.91058C 432.52567 394.0735 432.8317 394.04752 433.02 393.85C 433.54 393.27002 433.6367 392.6167 433.31 391.89C 433.08334 391.39 433.24335 391.12 433.79 391.08L433.79 391.08L434.81 391C 434.98697 390.9869 435.1576 391.0686 435.25836 391.21463C 435.35916 391.36066 435.375 391.54916 435.3 391.71C 435.00668 392.34335 434.92334 393.00668 435.05 393.7C 435.10736 393.93948 435.32825 394.04877 435.56354 393.95416C 435.7988 393.85953 435.97363 393.59106 435.97 393.33C 435.85666 391.77002 436.25 390.91 437.15 390.75C 437.59668 390.67 437.63666 390.49335 437.27 390.22L437.27 390.22L436.7 389.79C 436.4667 389.6167 436.21338 389.56335 435.94 389.63L435.94 389.63L434.24 390.05C 433.66 390.19 433.45334 389.97333 433.62 389.4L433.62 389.4L433.88 388.46C 433.93277 388.27292 434.073 388.12292 434.25488 388.05896C 434.43677 387.99503 434.63693 388.02533 434.79 388.14zM443.34 389.04C 444.19333 388.26666 444.37335 387.36667 443.88 386.34C 442.57 383.59 437.28 385.62 439.91 389.12C 439.99377 389.23264 440.02933 389.37372 440.0086 389.5112C 439.9879 389.64868 439.91266 389.77087 439.8 389.85C 439.01334 390.3967 438.66333 391.15668 438.75 392.13C 438.79 392.54333 438.98334 392.87 439.33 393.11C 440.85 394.1767 442.37335 394.1667 443.9 393.08C 444.21863 392.85635 444.42914 392.5043 444.48 392.11C 444.6 391.13004 444.2367 390.36005 443.39 389.8C 443.0567 389.57336 443.04 389.32 443.34 389.04zM462.25 387.4L462.24 392.11C 462.24 392.40335 462.09668 392.5767 461.81 392.63L461.81 392.63L460.36 392.91C 460.08057 392.96396 459.88843 393.22214 459.91702 393.50528C 459.9456 393.78842 460.18542 394.003 460.47 394L460.47 394L464.66 394C 464.91998 394.00003 465.1 393.88336 465.2 393.65C 465.26004 393.52335 465.2767 393.39 465.25 393.25C 465.19003 392.95 465.0067 392.82 464.7 392.86C 463.95337 392.97336 463.55002 392.69003 463.49 392.01C 463.3967 390.93002 463.46338 388.78003 463.69 385.56C 463.70746 385.3516 463.61356 385.1498 463.4421 385.02734C 463.27066 384.90488 463.04636 384.87936 462.85 384.96L462.85 384.96L460.24 386.02C 460.06964 386.09616 459.9745 386.28314 460.01373 386.4646C 460.05298 386.64606 460.21542 386.77032 460.4 386.76C 460.88 386.72668 461.35333 386.76 461.82 386.86C 462.11334 386.92 462.25668 387.1 462.25 387.4zM469.08 387.24L469.15 392.17C 469.15268 392.32294 469.0938 392.4705 468.9866 392.57956C 468.87943 392.68863 468.7329 392.75006 468.58 392.75L468.58 392.75L467.26 392.75C 467.13336 392.75 467.05334 392.81 467.02 392.93C 466.97336 393.07666 466.97336 393.23 467.02 393.39C 467.12668 393.78336 467.38 393.97668 467.78 393.97L467.78 393.97L472.19 393.88C 472.41724 393.8645 472.60068 393.6883 472.6253 393.46185C 472.6499 393.2354 472.5086 393.02393 472.29 392.96L472.29 392.96L471.02 392.66C 470.64667 392.56665 470.46335 392.33002 470.47 391.95L470.47 391.95L470.57 385.59C 470.57666 385.09668 470.34332 384.9267 469.87 385.08L469.87 385.08L467.45 385.85C 466.71002 386.08334 466.71667 386.29333 467.47 386.48L467.47 386.48L468.73 386.8C 468.9567 386.85333 469.07336 387 469.08 387.24zM479.13 392.19L479.45 391.95C 479.77002 391.71667 479.77335 391.47336 479.46 391.22L479.46 391.22L478.91 390.77C 478.60333 390.51666 478.46667 390.1967 478.5 389.81L478.5 389.81L478.82 386.08C 478.87112 385.49283 478.50186 384.95084 477.93677 384.7835C 477.37164 384.61618 476.76685 384.86972 476.49 385.39L476.49 385.39L473.43 391.06C 473.2763 391.3388 473.35782 391.69067 473.62 391.88C 474.22003 392.32004 474.88 392.41336 475.6 392.16C 475.89337 392.06003 476.19 392.0467 476.49 392.12C 477.0567 392.26 477.3067 392.6167 477.24 393.19C 477.16827 393.57294 477.4213 393.93707 477.80515 394.00333C 478.18896 394.0696 478.5583 393.81293 478.63 393.43L478.63 393.43L478.8 392.69C 478.84668 392.48334 478.95667 392.31668 479.13 392.19zM485.19 389.97C 485.04337 391.15668 484.47336 392.01337 483.48 392.54C 483.14783 392.7223 482.74475 392.72974 482.4 392.56L482.4 392.56L481.8 392.27C 481.49347 392.1126 481.1174 392.2335 480.96002 392.54004C 480.8026 392.84656 480.9235 393.22263 481.23 393.38C 486.98 396.54 488.43 385.12 483.38 385.04C 479.43 384.98 479.63 391.8 484.68 389.59C 485.07333 389.42334 485.24335 389.55 485.19 389.97zM450.24 389.71C 450.02002 392.15002 448.82333 393.02002 446.65 392.32C 446.25 392.19336 446.05 392.34003 446.05 392.76C 446.05 393.12003 446.2 393.37003 446.5 393.51C 452.4 396.24 453.68 383.4 447 385.43C 446.35117 385.6242 445.8279 386.10635 445.58023 386.7383C 445.33252 387.37024 445.38773 388.08215 445.73 388.67C 446.6767 390.29 448.01666 390.54 449.75 389.42C 449.8515 389.35605 449.9803 389.35428 450.08353 389.41537C 450.1868 389.47647 450.2472 389.5902 450.24 389.71zM455.32 392.2C 456.68 390.52 459.44 387.83 457.04 385.61C 456.80154 385.39087 456.49216 385.2664 456.17 385.26C 454.97 385.22003 454.19333 385.24335 453.84 385.33C 453.08667 385.50333 452.72668 385.91998 452.76 386.58C 452.7722 386.7669 452.89282 386.93036 453.06683 386.99564C 453.24084 387.06088 453.43478 387.0154 453.56 386.88C 454.03336 386.37335 454.64667 386.17334 455.4 386.28C 456.00388 386.3624 456.51224 386.7729 456.72 387.34583C 456.9278 387.9188 456.8007 388.5597 456.39 389.01L456.39 389.01L452.49 393.29C 452.35898 393.43033 452.3265 393.63623 452.40793 393.81006C 452.48935 393.98392 452.6683 394.09076 452.86 394.08L452.86 394.08L458.41 393.79C 458.63345 393.78036 458.8206 393.6176 458.86124 393.3977C 458.90186 393.17776 458.78522 392.95892 458.58 392.87C 457.7 392.47 456.76004 392.45334 455.76 392.82C 454.8667 393.14667 454.72003 392.94 455.32 392.2zM492.05 389.25C 495.19 387.18 491.13 383.99 488.18 385.7C 487.90668 385.8667 487.84332 386.09335 487.99 386.38C 488.09003 386.58667 488.25336 386.6667 488.48 386.62L488.48 386.62L490.46 386.23C 490.87076 386.1431 491.28085 386.3805 491.41 386.78C 491.69 387.64667 491.52 388.29 490.9 388.71C 490.60666 388.90335 490.28333 388.99667 489.93 388.99C 489.7367 388.98334 489.57004 389.04333 489.43 389.17C 489.3341 389.2608 489.28784 389.39224 489.30566 389.52307C 489.32352 389.65393 489.4033 389.76816 489.52 389.83L489.52 389.83L491.76 390.99C 491.96854 391.0976 492.10132 391.3101 492.1075 391.54617C 492.11374 391.78223 491.99243 392.0053 491.79 392.13C 490.6767 392.81 489.53668 392.81335 488.37 392.14C 488.11667 391.99338 487.93 392.0567 487.81 392.33C 487.74335 392.46335 487.73 392.61002 487.77 392.77C 487.81668 392.99002 487.97003 393.17 488.23 393.31C 489.94 394.25 493.63 393.96 493.26 391.14C 493.22003 390.81335 493.06003 390.57 492.78 390.41L492.78 390.41L492.07 389.98C 491.67 389.7467 491.66333 389.50336 492.05 389.25z" stroke="none" fill="#FFFFFF" fill-rule="nonzero" />
        <path d="M303.65 183.55C 303.18335 183.32333 302.80334 183.02335 302.51 182.65C 302.31 182.39 302.05 182.22 301.73 182.14C 297.7 181.21 291.65 181.68 290.95 186.76L290.95 186.76L285.4 187.44L285.27 182.82C 285.25665 182.44 285.06 182.25 284.68 182.25L284.68 182.25L281.72 182.25C 281.35336 182.25 281.15668 182.43 281.13 182.79L281.13 182.79L280.71 188.01C 280.08334 188.47 279.51334 188.49335 279 188.08C 278.72 187.86002 278.58334 187.57333 278.59 187.22C 279.01 163.18001 278.90668 146.94333 278.28 138.51C 277.72 130.99 273.56668 127.98001 265.82 129.48C 257.55 131.08 246.81 140.14 239.47 147.47C 227.59 159.32333 215.80333 171.04668 204.11 182.64C 201.73 182.40666 200.67667 181.52333 200.95 179.99C 201.74335 175.63 204.15335 174.22 208.18 175.76C 208.73195 175.97136 209.35722 175.80775 209.73492 175.35315C 210.11264 174.89854 210.15892 174.25389 209.85 173.75C 208.66 171.77 207.3 171.91 204.96 171.99C 199.16669 172.20334 196.50668 175.34 196.98 181.4C 197.00668 181.71333 196.86668 181.88666 196.56 181.92L196.56 181.92L193.72 182.26C 193.3 182.30667 193.08334 182.54001 193.07 182.96L193.07 182.96L193 184.75C 192.98666 185.18333 193.19667 185.38666 193.63 185.36L193.63 185.36L196.27 185.21C 196.44125 185.19894 196.60942 185.25934 196.7345 185.37683C 196.85957 185.49432 196.93036 185.6584 196.93 185.83L196.93 185.83L197 203.25C 197.00002 203.58334 197.16669 203.75002 197.5 203.75L197.5 203.75L200.43 203.75C 200.83 203.75002 201.03334 203.55002 201.04 203.15L201.04 203.15L201.24 191.18L212.88 204.35C 212.95692 204.43503 212.98735 204.55232 212.96141 204.664C 212.93549 204.77568 212.8565 204.86758 212.75 204.91L212.75 204.91L193.04 213.2C 192.73334 213.33333 192.47334 213.26999 192.26 213.01L192.26 213.01L181.16 199.22C 181.05643 199.08574 180.87971 199.03355 180.71832 199.0896C 180.55693 199.14565 180.44557 199.29784 180.44 199.47L180.44 199.47L180.22 218.65C 180.21382 219.13914 179.94804 219.59097 179.52 219.84L179.52 219.84L156.39 233.1C 156.322 233.13927 156.23827 233.13931 156.17023 233.10014C 156.10219 233.06097 156.06018 232.98851 156.06 232.91C 155.98001 204.99667 155.95001 177.02667 155.97 149C 155.99 133.37 155.39 128.37 137.94 128.14C 137.04285 128.1299 136.31198 127.41663 136.28 126.52C 136.21 124.39 138.44 124.73 139.97 124.74C 151.93 124.76 163.82 125.46 175.74 124.99C 179.55 124.84 193.04 123.77 195.73 125.29C 196.27641 125.60417 196.5573 126.235344 196.42493 126.85158C 196.29254 127.46781 195.77724 127.927956 195.15 127.99C 182.07 129.23 180.64 132.01 180.44 144.75C 180.20001 160.08334 180.20334 175.36667 180.45 190.6C 180.45255 190.78133 180.56367 190.94339 180.73189 191.01111C 180.9001 191.07884 181.09253 191.03897 181.22 190.91C 198.01 173.51 216 156.22 230.8 137.09C 232.70668 134.62334 233.11002 132.17 232.01 129.73C 231.91273 129.52931 231.75455 129.3676 231.56 129.27L231.56 129.27L227.61 127.39C 227.23123 127.20587 227.04736 126.76972 227.18 126.37C 227.54668 125.25001 228.65335 124.70334 230.5 124.73C 240.2 124.86 249.48 125.26 259.5 124.96C 273.81 124.53 287.83 125.45 302.31 124.96C 308.37 124.75334 314.43 124.76001 320.49 124.98C 321.45667 125.013336 322.10333 125.263336 322.43 125.73C 322.72986 126.15111 322.78098 126.700615 322.56393 127.1698C 322.34692 127.638985 321.89505 127.95584 321.38 128C 318.53333 128.25334 315.72 128.48334 312.94 128.69C 303.82 129.37 303.65 138.4 303.71 145.24C 303.81 157.97333 303.79 170.74333 303.65 183.55zM285.7671 173.1263C 285.77057 172.79495 285.50482 172.52351 285.1735 172.52L285.1735 172.52L281.3737 172.4802C 281.21457 172.47852 281.06128 172.54012 280.94757 172.65146C 280.83386 172.7628 280.76907 172.91476 280.7674 173.0739L280.7674 173.0739L280.7329 176.3737C 280.72943 176.70505 280.99518 176.97649 281.3265 176.98L281.3265 176.98L285.1263 177.0198C 285.28543 177.02148 285.43872 176.95988 285.55243 176.84854C 285.66614 176.7372 285.73093 176.58524 285.7326 176.4261L285.7326 176.4261L285.7671 173.1263z" stroke="none" fill="#2175B6" fill-rule="nonzero" />
        <path d="M204.11 182.64L199.32 187.68C 199.07333 187.94667 199.00333 188.25334 199.11 188.6C 199.47 189.76668 200.18001 190.62668 201.24 191.18L201.24 191.18L201.04 203.15C 201.03334 203.55002 200.83 203.75002 200.43 203.75L200.43 203.75L197.5 203.75C 197.16669 203.75002 197.00002 203.58334 197 203.25L197 203.25L196.93 185.83C 196.93036 185.6584 196.85957 185.49432 196.7345 185.37683C 196.60942 185.25934 196.44125 185.19894 196.27 185.21L196.27 185.21L193.63 185.36C 193.19667 185.38666 192.98666 185.18333 193 184.75L193 184.75L193.07 182.96C 193.08334 182.54001 193.3 182.30667 193.72 182.26L193.72 182.26L196.56 181.92C 196.86668 181.88666 197.00668 181.71333 196.98 181.4C 196.50668 175.34 199.16669 172.20334 204.96 171.99C 207.3 171.91 208.66 171.77 209.85 173.75C 210.15892 174.25389 210.11264 174.89854 209.73492 175.35315C 209.35722 175.80775 208.73195 175.97136 208.18 175.76C 204.15335 174.22 201.74335 175.63 200.95 179.99C 200.67667 181.52333 201.73 182.40666 204.11 182.64z" stroke="none" fill="#81B4DD" fill-rule="nonzero" />
        <path transform="matrix(0.99994516 0.010471784 -0.010471784 0.99994516 283.25 174.75)"  d="M-2.5 -1.65C -2.5 -1.9813708 -2.231371 -2.25 -1.9 -2.25L-1.9 -2.25L1.9 -2.25C 2.231371 -2.25 2.5 -1.9813708 2.5 -1.65L2.5 -1.65L2.5 1.65C 2.5 1.9813708 2.231371 2.25 1.9 2.25L1.9 2.25L-1.9 2.25C -2.231371 2.25 -2.5 1.9813708 -2.5 1.65L-2.5 1.65L-2.5 -1.65z" stroke="none" fill="#81B4DD" fill-rule="nonzero" />
        <path d="M303.65 183.55C 303.29666 183.78333 303.20667 184.25 303.38 184.95C 303.46667 185.31 303.34003 185.57 303 185.73C 302.04 186.18333 301.21667 186.28 300.53 186.02C 299.33002 184.7 297.61334 184.80667 295.38 186.34L295.38 186.34L290.95 186.76C 291.65 181.68 297.7 181.21 301.73 182.14C 302.05 182.22 302.31 182.39 302.51 182.65C 302.80334 183.02335 303.18335 183.32333 303.65 183.55z" stroke="none" fill="#81B4DD" fill-rule="nonzero" />
        <path d="M285.4 187.44L280.71 188.01L281.13 182.79C 281.15668 182.43 281.35336 182.25 281.72 182.25L281.72 182.25L284.68 182.25C 285.06 182.25 285.25665 182.44 285.27 182.82L285.27 182.82L285.4 187.44z" stroke="none" fill="#81B4DD" fill-rule="nonzero" />
        <path d="M300.53 186.02L295.38 186.34C 297.61334 184.80667 299.33002 184.7 300.53 186.02z" stroke="none" fill="#2175B6" fill-rule="nonzero" />
        <path d="M305.99 195.61L305.75 188.39C 336.71002 185.69 367.38666 187.54333 397.78 193.95C 397.97333 193.98999 398.02002 194.07666 397.92 194.21C 397.90002 194.23666 397.87335 194.26666 397.84 194.3C 397.78003 194.35333 397.7067 194.38 397.62 194.38C 384.22 193.66 369.6 191.58 357.5 191.51C 340.25336 191.40334 323.08334 192.77002 305.99 195.61z" stroke="none" fill="#27265F" fill-rule="nonzero" />
        <path d="M305.75 188.39L305.99 195.61C 302.13 195.61 303.57 201.48 303.61 204.09C 302.65002 203.80334 302.00336 203.12668 301.67 202.06C 301.56335 201.71333 301.3867 201.67 301.14 201.93C 298.66 204.55 292.11 205.48 290.53 201.18C 287.97 194.21 294.9 191.31 300.82 191.55C 301.15335 191.57 301.39667 191.43001 301.55 191.13C 301.99667 190.27 302.07336 189.47333 301.78 188.74L301.78 188.74L305.75 188.39zM294.5 198.95L296.42 201.05C 296.85687 201.52376 297.59457 201.55505 298.07 201.12L298.07 201.12L299.22 200.06C 301.4197 198.0453 302.45752 195.59392 301.54 194.58L301.54 194.58L301.39 194.42C 300.9457 193.93394 300.09833 193.85373 299.03473 194.197C 297.9711 194.5403 296.77853 195.2789 295.72 196.25L295.72 196.25L294.57 197.3C 294.09625 197.73686 294.06497 198.47458 294.5 198.95z" stroke="none" fill="#8889AC" fill-rule="nonzero" />
        <path d="M301.78 188.74C 302.07336 189.47333 301.99667 190.27 301.55 191.13C 301.39667 191.43001 301.15335 191.57 300.82 191.55C 294.9 191.31 287.97 194.21 290.53 201.18C 292.11 205.48 298.66 204.55 301.14 201.93C 301.3867 201.67 301.56335 201.71333 301.67 202.06C 302.00336 203.12668 302.65002 203.80334 303.61 204.09C 303.54 209.99 303.04 216.5 303.79 222.5C 303.85 222.98001 303.67667 223.40335 303.27 223.77C 301.99 223.87668 300.89667 223.35333 299.99 222.2C 299.72333 221.86626 299.66565 221.41147 299.8405 221.02173C 300.01535 220.63199 300.39343 220.37271 300.82 220.35L300.82 220.35L302.69 220.24C 302.96893 220.23448 303.19507 220.0039 303.19507 219.725C 303.19507 219.44609 302.96893 219.22447 302.69 219.23L302.69 219.23L300.39 219.11C 300.25076 219.10219 300.12503 219.02412 300.05627 218.90279C 299.9875 218.78145 299.98514 218.63347 300.05 218.51C 300.58334 217.54333 301.40335 216.95999 302.51 216.76C 302.7442 216.71764 302.91608 216.5161 302.92093 216.27817C 302.92578 216.04024 302.76227 215.83186 302.53 215.78C 296.76 214.54 296.51 226.69 303.32 224.43C 303.70667 225.16333 303.87335 226.10333 303.82 227.25C 303.27335 238.53 303.8 247.95667 305.4 255.53C 307.89 267.32 339.8 264.47 347.51 263.03C 355.5 261.55 359.44 252.57 360.43 245.42C 360.51813 244.78963 360.91608 244.24527 361.49 243.97C 362.2967 243.59 362.98334 243.73999 363.55 244.42C 363.73666 244.65335 363.83 244.92001 363.83 245.22C 363.69 253.48668 362.74667 261.66333 361 269.75C 359.96 274.53 356.89 275.2 352.5 275.22C 341.01334 275.28003 330.32333 275.17 320.43 274.89C 302.82 274.38 286.32 274.65 269.25 274.81C 259.52 274.9 250.42 273.61 242.45 267.28C 229.98 257.38 219.39 244.44 208.98 232.46C 208.65508 232.08488 208.10101 232.01186 207.69 232.29L207.69 232.29L181.27 250.13C 180.87666 250.39001 180.67 250.75667 180.65 251.23C 180.43 255.94 180.39 266.48 185.24 269.23C 188.52 271.09 195.31 271.17 199.21 271.4C 199.7208 271.4241 200.1476 271.79703 200.24 272.3C 200.44 273.40002 199.99333 274.05002 198.9 274.25C 196.68 274.66 194.71 274.9 192.34 274.79C 178.96 274.1967 165.57333 274.13 152.18 274.59C 152.00673 274.59656 151.83888 274.67154 151.71 274.8L151.71 274.8L125.57 300.47C 125.41 300.63 125.24334 300.64334 125.07 300.51L125.07 300.51L101.73 282.99C 101.41 282.75 101.4 282.50336 101.7 282.25C 140 249.26 182.34 222.63 229.93 205.18C 232.02335 204.41333 234.11667 203.73666 236.21 203.15C 238.63669 204.31668 241.08002 204.54333 243.54 203.83C 243.89334 203.73001 244.04669 203.5 244 203.14L244 203.14L243.66 200.67L248.15 199.53C 253.47 207.65 265.21 205.19 265.96 194.84L265.96 194.84L270.28 193.81L270.57 204.12C 259.47 207.75336 248.37334 211.93668 237.28 216.67C 236.24 215.42334 235.71333 213.77002 235.7 211.71C 235.71211 211.44855 235.52054 211.22198 235.2607 211.19049C 235.00087 211.159 234.76071 211.3332 234.71 211.59C 234.27667 213.45001 234.29333 215.55002 234.76 217.89L234.76 217.89L228.84 220.85C 228.72221 220.90926 228.63908 221.02037 228.6155 221.15009C 228.5919 221.27982 228.6306 221.41309 228.72 221.51C 238.36 232.21667 248.27 242.48001 258.45 252.3C 263.74335 257.40668 269.50336 261.87 275.73 265.69C 275.9134 265.80487 276.14172 265.82104 276.3412 265.7333C 276.54065 265.64554 276.6859 265.46497 276.73 265.25C 279.35 251.76 278.68 236.94 278.79 223.13C 282.88336 226.00336 285.42 225.20001 286.4 220.72C 287.45 215.94 282.04 213.99 278.76 217.42L278.76 217.42L278.73 202.46C 278.73 202.05334 278.53336 201.89668 278.14 201.99L278.14 201.99L275.17 202.74L274.85 192.96L281.04 191.69L280.92 202.59C 280.91583 202.95378 281.06552 203.30243 281.33212 203.54999C 281.59872 203.79756 281.9575 203.92104 282.32 203.89L282.32 203.89L284.8 203.69C 285.08667 203.67001 285.23004 203.51335 285.23 203.22L285.23 203.22L285.22 191.03L301.78 188.74zM290.27 215.02C 290.22998 214.00668 290.22333 213.00002 290.25 212C 290.26334 211.26001 289.86002 211.05 289.04 211.37C 288.84668 211.44333 288.75 211.58333 288.75 211.79L288.75 211.79L288.75 223.24C 288.7494 223.7281 288.94922 224.19504 289.30276 224.53157C 289.6563 224.8681 290.1325 225.04468 290.62 225.02C 298.53 224.61 298.7 214.82 290.82 215.51C 290.46667 215.54333 290.28333 215.38 290.27 215.02z" stroke="none" fill="#27265F" fill-rule="nonzero" />
        <path d="M285.22 191.03L285.23 203.22C 285.23004 203.51335 285.08667 203.67001 284.8 203.69L284.8 203.69L282.32 203.89C 281.9575 203.92104 281.59872 203.79756 281.33212 203.54999C 281.06552 203.30243 280.91583 202.95378 280.92 202.59L280.92 202.59L281.04 191.69L285.22 191.03z" stroke="none" fill="#8889AC" fill-rule="nonzero" />
        <path d="M274.85 192.96L275.17 202.74L270.57 204.12L270.28 193.81L274.85 192.96z" stroke="none" fill="#8889AC" fill-rule="nonzero" />
        <path d="M294.5 198.95C 294.06497 198.47458 294.09625 197.73686 294.57 197.3L294.57 197.3L295.72 196.25C 296.77853 195.2789 297.9711 194.5403 299.03473 194.197C 300.09833 193.85373 300.9457 193.93394 301.39 194.42L301.39 194.42L301.54 194.58C 302.45752 195.59392 301.4197 198.0453 299.22 200.06L299.22 200.06L298.07 201.12C 297.59457 201.55505 296.85687 201.52376 296.42 201.05L296.42 201.05L294.5 198.95z" stroke="none" fill="#27265F" fill-rule="nonzero" />
        <path d="M265.96 194.84C 265.21 205.19 253.47 207.65 248.15 199.53C 249.62335 198.77002 251.01668 198.37335 252.33 198.34C 254.79 203.12 260.84 201.23 261.15 195.99L261.15 195.99L265.96 194.84z" stroke="none" fill="#8889AC" fill-rule="nonzero" />
        <path d="M261.15 195.99C 260.84 201.23 254.79 203.12 252.33 198.34L252.33 198.34L261.15 195.99z" stroke="none" fill="#27265F" fill-rule="nonzero" />
        <path d="M243.66 200.67L244 203.14C 244.04669 203.5 243.89334 203.73001 243.54 203.83C 241.08002 204.54333 238.63669 204.31668 236.21 203.15L236.21 203.15L243.66 200.67z" stroke="none" fill="#8889AC" fill-rule="nonzero" />
        <path d="M278.76 217.42L279.35 219.26L279.18 220.46L278.79 223.13C 278.68 236.94 279.35 251.76 276.73 265.25C 276.6859 265.46497 276.54065 265.64554 276.3412 265.7333C 276.14172 265.82104 275.9134 265.80487 275.73 265.69C 269.50336 261.87 263.74335 257.40668 258.45 252.3C 248.27 242.48001 238.36 232.21667 228.72 221.51C 228.6306 221.41309 228.5919 221.27982 228.6155 221.15009C 228.63908 221.02037 228.72221 220.90926 228.84 220.85L228.84 220.85L234.76 217.89C 235.64001 217.67001 236.48001 217.26334 237.28 216.67C 248.37334 211.93668 259.47 207.75336 270.57 204.12L270.57 204.12L275.17 202.74L278.14 201.99C 278.53336 201.89668 278.73 202.05334 278.73 202.46L278.73 202.46L278.76 217.42z" stroke="none" fill="#FFFFFF" fill-rule="nonzero" />
        <path d="M237.28 216.67C 236.48001 217.26334 235.64001 217.67001 234.76 217.89C 234.29333 215.55002 234.27667 213.45001 234.71 211.59C 234.76071 211.3332 235.00087 211.159 235.2607 211.19049C 235.52054 211.22198 235.71211 211.44855 235.7 211.71C 235.71333 213.77002 236.24 215.42334 237.28 216.67z" stroke="none" fill="#8889AC" fill-rule="nonzero" />
        <path d="M290.82 215.51C 298.7 214.82 298.53 224.61 290.62 225.02C 290.1325 225.04468 289.6563 224.8681 289.30276 224.53157C 288.94922 224.19504 288.7494 223.7281 288.75 223.24L288.75 223.24L288.75 211.79C 288.75 211.58333 288.84668 211.44333 289.04 211.37C 289.86002 211.05 290.26334 211.26001 290.25 212C 290.22333 213.00002 290.22998 214.00668 290.27 215.02C 290.28333 215.38 290.46667 215.54333 290.82 215.51zM290.26 217.75L290.24 222.73C 290.23993 223.19556 290.61444 223.57452 291.08 223.58L291.08 223.58L291.83 223.59C 292.66992 223.59544 293.47742 223.27682 294.0741 222.70453C 294.67078 222.13225 295.00754 221.35338 295.01 220.54L295.01 220.54L295.01 219.98C 295.01517 218.29404 293.61102 216.92123 291.87 216.91L291.87 216.91L291.12 216.9C 290.89285 216.89732 290.67407 216.9857 290.51248 217.1454C 290.35092 217.3051 290.26 217.52283 290.26 217.75z" stroke="none" fill="#8889AC" fill-rule="nonzero" />
        <path d="M278.79 223.13L279.18 220.46C 279.62 222.5 281.52 224.64 283.73 223.27C 287.84 220.72 282.41 212.88 279.35 219.26L279.35 219.26L278.76 217.42C 282.04 213.99 287.45 215.94 286.4 220.72C 285.42 225.20001 282.88336 226.00336 278.79 223.13z" stroke="none" fill="#8889AC" fill-rule="nonzero" />
        <path d="M303.27 223.77C 303.21667 224.05667 303.23334 224.27667 303.32 224.43C 296.51 226.69 296.76 214.54 302.53 215.78C 302.76227 215.83186 302.92578 216.04024 302.92093 216.27817C 302.91608 216.5161 302.7442 216.71764 302.51 216.76C 301.40335 216.95999 300.58334 217.54333 300.05 218.51C 299.98514 218.63347 299.9875 218.78145 300.05627 218.90279C 300.12503 219.02412 300.25076 219.10219 300.39 219.11L300.39 219.11L302.69 219.23C 302.96893 219.22447 303.19507 219.44609 303.19507 219.725C 303.19507 220.0039 302.96893 220.23448 302.69 220.24L302.69 220.24L300.82 220.35C 300.39343 220.37271 300.01535 220.63199 299.8405 221.02173C 299.66565 221.41147 299.72333 221.86626 299.99 222.2C 300.89667 223.35333 301.99 223.87668 303.27 223.77z" stroke="none" fill="#8889AC" fill-rule="nonzero" />
        <path d="M279.18 220.46L279.35 219.26C 282.41 212.88 287.84 220.72 283.73 223.27C 281.52 224.64 279.62 222.5 279.18 220.46z" stroke="none" fill="#27265F" fill-rule="nonzero" />
        <path d="M290.26 217.75C 290.26 217.52283 290.35092 217.3051 290.51248 217.1454C 290.67407 216.9857 290.89285 216.89732 291.12 216.9L291.12 216.9L291.87 216.91C 293.61102 216.92123 295.01517 218.29404 295.01 219.98L295.01 219.98L295.01 220.54C 295.00754 221.35338 294.67078 222.13225 294.0741 222.70453C 293.47742 223.27682 292.66992 223.59544 291.83 223.59L291.83 223.59L291.08 223.58C 290.61444 223.57452 290.23993 223.19556 290.24 222.73L290.24 222.73L290.26 217.75z" stroke="none" fill="#27265F" fill-rule="nonzero" />
        <path d="M433.88 388.46L433.62 389.4C 433.45334 389.97333 433.66 390.19 434.24 390.05L434.24 390.05L435.94 389.63C 436.21338 389.56335 436.4667 389.6167 436.7 389.79L436.7 389.79L437.27 390.22C 437.63666 390.49335 437.59668 390.67 437.15 390.75C 436.25 390.91 435.85666 391.77002 435.97 393.33C 435.97363 393.59106 435.7988 393.85953 435.56354 393.95416C 435.32825 394.04877 435.10736 393.93948 435.05 393.7C 434.92334 393.00668 435.00668 392.34335 435.3 391.71C 435.375 391.54916 435.35916 391.36066 435.25836 391.21463C 435.1576 391.0686 434.98697 390.9869 434.81 391L434.81 391L433.79 391.08C 433.24335 391.12 433.08334 391.39 433.31 391.89C 433.6367 392.6167 433.54 393.27002 433.02 393.85C 432.8317 394.04752 432.52567 394.0735 432.30676 393.91058C 432.08786 393.74768 432.02487 393.44705 432.16 393.21C 432.86002 392.07 432.64334 391.22333 431.51 390.67C 431.18335 390.51 431.2 390.39 431.56 390.31C 431.77335 390.27002 431.97668 390.20337 432.17 390.11C 432.3967 390.00336 432.5567 389.85333 432.65 389.66C 433.01 388.95337 432.86334 388.38 432.21 387.94C 431.86334 387.70667 431.87 387.48334 432.23 387.27C 432.95 386.85 433.30334 386.22003 433.29 385.38C 433.28995 385.2775 433.33136 385.1793 433.4048 385.10773C 433.4782 385.03616 433.57745 384.9973 433.68 385C 433.8 385.00003 433.92334 385.00003 434.05 385C 434.12073 384.99832 434.18832 385.02927 434.23325 385.08395C 434.27817 385.13864 434.2954 385.21094 434.28 385.28L434.28 385.28L434.08 386.29C 434.01334 386.65668 434.15668 386.8867 434.51 386.98C 435.1167 387.14 435.6167 387.02335 436.01 386.63C 436.18335 386.4567 436.22003 386.25336 436.12 386.02C 436.04004 385.85333 435.9967 385.68335 435.99 385.51C 435.97003 385.2834 436.03336 385.12335 436.18 385.03C 436.30667 384.95 436.46332 384.95 436.65 385.03C 436.91003 385.14337 436.98 385.33002 436.86 385.59C 436.61334 386.13 436.72336 386.56668 437.19 386.9C 437.6567 387.23334 437.6767 387.59 437.25 387.97C 436.44336 388.70334 435.62335 388.76 434.79 388.14C 434.63693 388.02533 434.43677 387.99503 434.25488 388.05896C 434.073 388.12292 433.93277 388.27292 433.88 388.46z" stroke="none" fill="#010101" fill-rule="nonzero" />
        <path d="M443.39 389.8C 444.2367 390.36005 444.6 391.13004 444.48 392.11C 444.42914 392.5043 444.21863 392.85635 443.9 393.08C 442.37335 394.1667 440.85 394.1767 439.33 393.11C 438.98334 392.87 438.79 392.54333 438.75 392.13C 438.66333 391.15668 439.01334 390.3967 439.8 389.85C 439.91266 389.77087 439.9879 389.64868 440.0086 389.5112C 440.02933 389.37372 439.99377 389.23264 439.91 389.12C 437.28 385.62 442.57 383.59 443.88 386.34C 444.37335 387.36667 444.19333 388.26666 443.34 389.04C 443.04 389.32 443.0567 389.57336 443.39 389.8zM442.92 387.47C 442.92 387.1252 442.78305 386.79456 442.53925 386.55075C 442.29544 386.30695 441.96478 386.16998 441.62 386.17C 440.902 386.17 440.32 386.752 440.32 387.47C 440.32 388.188 440.902 388.77 441.62 388.77C 441.96478 388.77002 442.29544 388.63306 442.53925 388.38925C 442.78305 388.14545 442.92 387.8148 442.92 387.47zM442.95 391.47C 442.95004 391.0801 442.79517 390.7062 442.5195 390.4305C 442.2438 390.15485 441.8699 389.99997 441.48 390C 441.09012 389.99997 440.71622 390.15485 440.44052 390.4305C 440.16486 390.7062 440.00998 391.0801 440.01 391.47C 440.00998 391.8599 440.16486 392.2338 440.44052 392.5095C 440.71622 392.78516 441.09012 392.94003 441.48 392.94C 441.8699 392.94003 442.2438 392.78516 442.5195 392.5095C 442.79517 392.2338 442.95004 391.8599 442.95 391.47z" stroke="none" fill="#010101" fill-rule="nonzero" />
        <path d="M461.82 386.86C 461.35333 386.76 460.88 386.72668 460.4 386.76C 460.21542 386.77032 460.05298 386.64606 460.01373 386.4646C 459.9745 386.28314 460.06964 386.09616 460.24 386.02L460.24 386.02L462.85 384.96C 463.04636 384.87936 463.27066 384.90488 463.4421 385.02734C 463.61356 385.1498 463.70746 385.3516 463.69 385.56C 463.46338 388.78003 463.3967 390.93002 463.49 392.01C 463.55002 392.69003 463.95337 392.97336 464.7 392.86C 465.0067 392.82 465.19003 392.95 465.25 393.25C 465.2767 393.39 465.26004 393.52335 465.2 393.65C 465.1 393.88336 464.91998 394.00003 464.66 394L464.66 394L460.47 394C 460.18542 394.003 459.9456 393.78842 459.91702 393.50528C 459.88843 393.22214 460.08057 392.96396 460.36 392.91L460.36 392.91L461.81 392.63C 462.09668 392.5767 462.24 392.40335 462.24 392.11L462.24 392.11L462.25 387.4C 462.25668 387.1 462.11334 386.92 461.82 386.86z" stroke="none" fill="#010101" fill-rule="nonzero" />
        <path d="M468.73 386.8L467.47 386.48C 466.71667 386.29333 466.71002 386.08334 467.45 385.85L467.45 385.85L469.87 385.08C 470.34332 384.9267 470.57666 385.09668 470.57 385.59L470.57 385.59L470.47 391.95C 470.46335 392.33002 470.64667 392.56665 471.02 392.66L471.02 392.66L472.29 392.96C 472.5086 393.02393 472.6499 393.2354 472.6253 393.46185C 472.60068 393.6883 472.41724 393.8645 472.19 393.88L472.19 393.88L467.78 393.97C 467.38 393.97668 467.12668 393.78336 467.02 393.39C 466.97336 393.23 466.97336 393.07666 467.02 392.93C 467.05334 392.81 467.13336 392.75 467.26 392.75L467.26 392.75L468.58 392.75C 468.7329 392.75006 468.87943 392.68863 468.9866 392.57956C 469.0938 392.4705 469.15268 392.32294 469.15 392.17L469.15 392.17L469.08 387.24C 469.07336 387 468.9567 386.85333 468.73 386.8z" stroke="none" fill="#010101" fill-rule="nonzero" />
        <path d="M478.8 392.69L478.63 393.43C 478.5583 393.81293 478.18896 394.0696 477.80515 394.00333C 477.4213 393.93707 477.16827 393.57294 477.24 393.19C 477.3067 392.6167 477.0567 392.26 476.49 392.12C 476.19 392.0467 475.89337 392.06003 475.6 392.16C 474.88 392.41336 474.22003 392.32004 473.62 391.88C 473.35782 391.69067 473.2763 391.3388 473.43 391.06L473.43 391.06L476.49 385.39C 476.76685 384.86972 477.37164 384.61618 477.93677 384.7835C 478.50186 384.95084 478.87112 385.49283 478.82 386.08L478.82 386.08L478.5 389.81C 478.46667 390.1967 478.60333 390.51666 478.91 390.77L478.91 390.77L479.46 391.22C 479.77335 391.47336 479.77002 391.71667 479.45 391.95L479.45 391.95L479.13 392.19C 478.95667 392.31668 478.84668 392.48334 478.8 392.69zM477.03 386.75L475.15 390.5C 475.099 390.60742 475.10605 390.7334 475.16873 390.83447C 475.23138 390.93555 475.3411 390.9979 475.46 391L475.46 391L476.61 391C 477.01666 391.00003 477.22668 390.7967 477.24 390.39L477.24 390.39L477.36 386.83C 477.3767 386.7411 477.3209 386.65466 477.23297 386.63333C 477.14505 386.61203 477.05585 386.6633 477.03 386.75z" stroke="none" fill="#010101" fill-rule="nonzero" />
        <path d="M484.68 389.59C 479.63 391.8 479.43 384.98 483.38 385.04C 488.43 385.12 486.98 396.54 481.23 393.38C 480.9235 393.22263 480.8026 392.84656 480.96002 392.54C 481.1174 392.2335 481.49347 392.1126 481.8 392.27L481.8 392.27L482.4 392.56C 482.74475 392.72974 483.14783 392.7223 483.48 392.54C 484.47336 392.01337 485.04337 391.15668 485.19 389.97C 485.24335 389.55 485.07333 389.42334 484.68 389.59zM484.91 387.67C 484.90997 387.28278 484.75616 386.91144 484.48236 386.6376C 484.20856 386.3638 483.83722 386.21 483.45 386.21C 483.06277 386.21 482.6914 386.3638 482.4176 386.6376C 482.1438 386.9114 481.99 387.28278 481.99 387.67C 481.99 388.05725 482.1438 388.4286 482.4176 388.7024C 482.69144 388.9762 483.06277 389.13 483.45 389.13C 484.25632 389.13 484.90997 388.47635 484.91 387.67z" stroke="none" fill="#010101" fill-rule="nonzero" />
        <path d="M449.75 389.42C 448.01666 390.54 446.6767 390.29 445.73 388.67C 445.38773 388.08215 445.33252 387.37024 445.58023 386.7383C 445.8279 386.10635 446.35117 385.6242 447 385.43C 453.68 383.4 452.4 396.24 446.5 393.51C 446.2 393.37003 446.05 393.12003 446.05 392.76C 446.05 392.34003 446.25 392.19336 446.65 392.32C 448.82333 393.02002 450.02002 392.15002 450.24 389.71C 450.2472 389.5902 450.1868 389.47647 450.08353 389.41537C 449.9803 389.35428 449.8515 389.35605 449.75 389.42zM449.86 387.69C 449.86002 386.8947 449.21533 386.25003 448.42 386.25C 448.03812 386.25 447.67184 386.4017 447.4018 386.67178C 447.1317 386.94183 446.98 387.3081 446.98 387.69C 446.98 388.0719 447.1317 388.43817 447.4018 388.70822C 447.67184 388.9783 448.03812 389.13 448.42 389.13C 449.21533 389.12997 449.86002 388.4853 449.86 387.69z" stroke="none" fill="#010101" fill-rule="nonzero" />
        <path d="M455.32 392.2C 454.72003 392.94 454.8667 393.14667 455.76 392.82C 456.76004 392.45334 457.7 392.47 458.58 392.87C 458.78522 392.95892 458.90186 393.17776 458.86124 393.3977C 458.8206 393.6176 458.63345 393.78036 458.41 393.79L458.41 393.79L452.86 394.08C 452.6683 394.09076 452.48935 393.98392 452.40793 393.81006C 452.3265 393.63623 452.35898 393.43033 452.49 393.29L452.49 393.29L456.39 389.01C 456.8007 388.5597 456.9278 387.9188 456.72 387.34583C 456.51224 386.7729 456.00388 386.3624 455.4 386.28C 454.64667 386.17334 454.03336 386.37335 453.56 386.88C 453.43478 387.0154 453.24084 387.06088 453.06683 386.99564C 452.89282 386.93036 452.7722 386.7669 452.76 386.58C 452.72668 385.91998 453.08667 385.50333 453.84 385.33C 454.19333 385.24335 454.97 385.22003 456.17 385.26C 456.49216 385.2664 456.80154 385.39087 457.04 385.61C 459.44 387.83 456.68 390.52 455.32 392.2z" stroke="none" fill="#010101" fill-rule="nonzero" />
        <path d="M492.07 389.98L492.78 390.41C 493.06003 390.57 493.22003 390.81335 493.26 391.14C 493.63 393.96 489.94 394.25 488.23 393.31C 487.97003 393.17 487.81668 392.99002 487.77 392.77C 487.73 392.61002 487.74335 392.46335 487.81 392.33C 487.93 392.0567 488.11667 391.99338 488.37 392.14C 489.53668 392.81335 490.6767 392.81 491.79 392.13C 491.99243 392.0053 492.11374 391.78223 492.1075 391.54617C 492.10132 391.3101 491.96854 391.0976 491.76 390.99L491.76 390.99L489.52 389.83C 489.4033 389.76816 489.32352 389.65393 489.30566 389.52307C 489.28784 389.39224 489.3341 389.2608 489.43 389.17C 489.57004 389.04333 489.7367 388.98334 489.93 388.99C 490.28333 388.99667 490.60666 388.90335 490.9 388.71C 491.52 388.29 491.69 387.64667 491.41 386.78C 491.28085 386.3805 490.87076 386.1431 490.46 386.23L490.46 386.23L488.48 386.62C 488.25336 386.6667 488.09003 386.58667 487.99 386.38C 487.84332 386.09335 487.90668 385.8667 488.18 385.7C 491.13 383.99 495.19 387.18 492.05 389.25C 491.66333 389.50336 491.67 389.7467 492.07 389.98z" stroke="none" fill="#010101" fill-rule="nonzero" />
        <path d="M442.91998 387.47C 442.91998 387.829 442.7931 388.13544 442.53925 388.38925C 442.28543 388.64307 441.979 388.77 441.62 388.77C 441.26102 388.77 440.9546 388.64307 440.70074 388.38925C 440.44696 388.13544 440.32004 387.829 440.32 387.47C 440.32004 387.11102 440.44696 386.8046 440.70074 386.55075C 440.9546 386.29694 441.26102 386.17004 441.62 386.17C 441.979 386.17004 442.28543 386.29694 442.53925 386.55075C 442.7931 386.8046 442.91998 387.11102 442.91998 387.47C 442.91998 387.48517 442.91974 387.5003 442.9192 387.51538" stroke="none" fill="#FFFFFF" fill-rule="nonzero" />
        <path d="M449.86002 387.69C 449.86002 388.08768 449.71942 388.42706 449.43823 388.70822C 449.15707 388.98944 448.8177 389.13 448.42 389.13C 448.0224 389.13 447.68298 388.98944 447.4018 388.70822C 447.12064 388.42706 446.98004 388.08768 446.98 387.69C 446.98004 387.2924 447.12064 386.95297 447.4018 386.67178C 447.68298 386.3906 448.0224 386.25 448.42 386.25C 448.8177 386.25 449.15707 386.3906 449.43823 386.67178C 449.71942 386.95297 449.86002 387.2924 449.86002 387.69C 449.86002 387.7068 449.85974 387.72354 449.85913 387.74026" stroke="none" fill="#FFFFFF" fill-rule="nonzero" />
        <path d="M484.91 387.67C 484.91003 388.07318 484.7675 388.41733 484.4824 388.7024C 484.19733 388.9875 483.8532 389.13 483.45 389.13C 483.04688 389.13 482.70273 388.9875 482.41763 388.7024C 482.13257 388.41733 481.99005 388.07318 481.99002 387.67C 481.99005 387.26685 482.13257 386.92273 482.41763 386.63763C 482.70273 386.35257 483.04688 386.21002 483.45 386.21002C 483.8532 386.21002 484.19733 386.35257 484.4824 386.63763C 484.7675 386.92273 484.91003 387.26685 484.91 387.67C 484.91003 387.687 484.90973 387.704 484.90912 387.72098" stroke="none" fill="#FFFFFF" fill-rule="nonzero" />
        <path d="M477.03 386.75C 477.05585 386.6633 477.14505 386.61203 477.23297 386.63333C 477.3209 386.65466 477.3767 386.7411 477.36 386.83L477.36 386.83L477.24 390.39C 477.22668 390.7967 477.01666 391.00003 476.61 391L476.61 391L475.46 391C 475.3411 390.9979 475.23138 390.93555 475.16873 390.83447C 475.10605 390.7334 475.099 390.60742 475.15 390.5L475.15 390.5L477.03 386.75z" stroke="none" fill="#FFFFFF" fill-rule="nonzero" />
        <path d="M442.95 391.47C 442.95 391.87592 442.80652 392.2224 442.51947 392.50946C 442.23245 392.7965 441.88596 392.94003 441.48 392.94C 441.0741 392.94003 440.7276 392.7965 440.44055 392.50946C 440.15356 392.2224 440.01004 391.87592 440.01 391.47C 440.01004 391.0641 440.15356 390.71762 440.44055 390.43054C 440.7276 390.14352 441.0741 390 441.48 390C 441.88596 390 442.23245 390.14352 442.51947 390.43054C 442.80652 390.71762 442.95 391.0641 442.95 391.47C 442.95 391.48712 442.94974 391.50424 442.94913 391.5213" stroke="none" fill="#FFFFFF" fill-rule="nonzero" />
	</g>
</g>
</svg>